<svg xmlns="http://www.w3.org/2000/svg" width="188.08661" height="151.23712" viewBox="0 0 188.08661 151.23712"><defs><style>.cls-1{fill:#fff;stroke:#666766;}.cls-1,.cls-3,.cls-6,.cls-7{stroke-miterlimit:10;}.cls-2,.cls-3,.cls-6,.cls-7{fill:none;}.cls-2,.cls-3,.cls-6{stroke:#ed2024;}.cls-2{stroke-linejoin:bevel;}.cls-2,.cls-3,.cls-7{stroke-width:1.5px;}.cls-4,.cls-5{fill:#ed2024;}.cls-5{font-size:15px;font-family:Helvetica-Bold, Helvetica;font-weight:700;}.cls-6,.cls-7{stroke-linecap:round;}.cls-6{stroke-width:1.2px;}.cls-7{stroke:#000;}</style></defs><title>Bottom Voltage Dial</title><g id="Layer_2" data-name="Layer 2"><g id="Layer_1-2" data-name="Layer 1"><g id="Bottom_Voltage_Dial" data-name="Bottom Voltage Dial"><path id="Bottom_Dial" data-name="Bottom Dial" class="cls-1" d="M94.04327.5A93.54131,93.54131,0,0,0,19.64,150.73712H168.44666A93.54131,93.54131,0,0,0,94.04327.5ZM23.70752,148.98932a3.30454,3.30454,0,1,1,3.3045-3.30451A3.30454,3.30454,0,0,1,23.70752,148.98932Zm7.204-112.72919a3.30454,3.30454,0,1,1,3.30456-3.30456A3.30454,3.30454,0,0,1,30.9115,36.26013Zm63.13177,86.12952a28.34644,28.34644,0,1,1,28.34644-28.34644A28.3464,28.3464,0,0,1,94.04327,122.38965Zm61.23066-89.49909a3.30454,3.30454,0,1,1,3.30456-3.30456A3.30453,3.30453,0,0,1,155.27393,32.89056Zm12.08819,115.20935a3.30454,3.30454,0,1,1,3.30457-3.3045A3.30452,3.30452,0,0,1,167.36212,148.09991Z"/><rect class="cls-2" x="28.42319" y="101.14213" width="4.37218" height="9.07006" rx="2.18609" transform="translate(-20.81244 8.41259) rotate(-11.71086)"/><rect class="cls-2" x="156.92334" y="100.62056" width="4.37218" height="9.07006" rx="2.18609" transform="translate(19.96954 -25.2806) rotate(9.69)"/><polyline class="cls-3" points="91.036 33.771 91.035 24.167 90.743 24.167 88.052 25.948"/><path class="cls-3" d="M94.11048,31.81115a1.98888,1.98888,0,0,0,2.18609,1.67653h0a1.98888,1.98888,0,0,0,2.18609-1.67653V28.81336a1.98888,1.98888,0,0,0-2.18609-1.67654h0a1.98888,1.98888,0,0,0-2.18609,1.67654V24.44991h4.87607"/><rect class="cls-2" x="168.44043" y="74.00118" width="4.37218" height="9.07006" rx="2.18609" transform="translate(-11.53518 32.72724) rotate(-10.60002)"/><polyline class="cls-3" points="159.35 85.739 157.584 76.299 157.296 76.353 154.979 78.599"/><path class="cls-3" d="M161.88378,83.04466a1.98888,1.98888,0,0,0,2.45719,1.24579h0c1.18183-.22117,2.01-1.1437,1.84038-2.05006l-.55145-2.94663a1.98888,1.98888,0,0,0-2.45719-1.2458h0c-1.18183.22118-2.01,1.14371-1.84038,2.05007l-.80267-4.289,4.79286-.897"/><path class="cls-2" d="M56.38492,44.94818a2.16862,2.16862,0,0,0-.30729-2.17267h0c-.82014-.93848-2.46494-.85534-3.65512.18475l-2.47736,2.16506"/><ellipse class="cls-2" cx="51.4363" cy="46.83164" rx="2.87384" ry="2.26607" transform="translate(-18.11144 45.41467) rotate(-41.15)"/><rect class="cls-2" x="135.59978" y="34.56593" width="4.37218" height="9.07006" rx="2.18609" transform="translate(20.21422 120.89789) rotate(-50.67002)"/><path class="cls-2" d="M131.972,40.95727a2.16863,2.16863,0,0,0-2.09193.6624h0c-.78991.96406-.43588,2.57246.78673,3.57422l2.545,2.08516"/><ellipse class="cls-2" cx="134.64797" cy="45.52622" rx="2.26607" ry="2.87384" transform="translate(14.09503 120.82365) rotate(-50.66998)"/><path class="cls-3" d="M27.69789,85.77608a2.5924,2.5924,0,1,0,2.99054-2.32674l.01942-.12048.0704.01135a1.7993,1.7993,0,1,0,.56341-3.4941,1.97175,1.97175,0,0,0-2.37939,1.4088"/><circle class="cls-4" cx="38.52254" cy="104.73774" r="1.37523"/><circle class="cls-4" cx="38.25097" cy="85.0201" r="1.37523"/><circle class="cls-4" cx="56.86185" cy="51.49025" r="1.37523"/><circle class="cls-4" cx="94.04324" cy="37.53445" r="1.37523"/><circle class="cls-4" cx="129.85684" cy="50.33155" r="1.37523"/><circle class="cls-4" cx="149.59573" cy="83.64586" r="1.37523"/><circle class="cls-4" cx="149.59573" cy="103.53109" r="1.37523"/><text class="cls-5" transform="translate(15.91969 127.34391)">V</text><path class="cls-6" d="M27.05776,122.17626c1.00969-1.25324,1.41074-1.61428,2.09406-1.59148.77235.02576,1.42113.90884,2.2895,1.71712,1.03355.962,1.10287,1.34551,2.26584,1.34551.32841,0,1.308.00125,2.0329-1.64472"/><text class="cls-5" transform="translate(157.94081 127.34391)">V</text><path class="cls-6" d="M169.07889,122.17626c1.00969-1.25324,1.41074-1.61428,2.09406-1.59148.77235.02576,1.42113.90884,2.2895,1.71712,1.03355.962,1.10287,1.34551,2.26584,1.34551.32841,0,1.308.00125,2.0329-1.64472"/><path class="cls-7" d="M37.79477,139.44083c1.00968-1.25324,1.41074-1.61427,2.09405-1.59148.77235.02577,1.42114.90884,2.2895,1.71713,1.03356.962,1.10287,1.3455,2.26584,1.3455.32842,0,1.308.00125,2.0329-1.64471"/><path class="cls-7" d="M141.86974,139.57731c1.00968-1.25324,1.41074-1.61428,2.094-1.59148.77235.02577,1.42114.90884,2.2895,1.71712,1.03356.96205,1.10287,1.34551,2.26584,1.34551.32842,0,1.308.00125,2.0329-1.64471"/></g></g></g></svg>