<svg xmlns="http://www.w3.org/2000/svg" width="438.41185" height="311.27959" viewBox="0 0 438.41185 311.27959"><defs><style>.cls-1{fill:#f6f0db;stroke-width:0.25px;}.cls-1,.cls-10,.cls-11,.cls-13,.cls-27,.cls-30,.cls-7,.cls-9{stroke:#231f20;}.cls-1,.cls-10,.cls-12,.cls-14,.cls-16,.cls-17,.cls-19,.cls-20,.cls-21,.cls-23,.cls-25,.cls-27,.cls-28,.cls-29,.cls-30,.cls-31,.cls-32,.cls-41,.cls-42,.cls-7,.cls-8,.cls-9{stroke-miterlimit:10;}.cls-15,.cls-2,.cls-33{fill:#231f20;}.cls-3{fill:#412312;}.cls-4,.cls-6{font-size:21px;font-family:DINAlternate-Bold, DIN Alternate;font-weight:700;}.cls-5{letter-spacing:0.05997em;}.cls-6{letter-spacing:0.04002em;}.cls-10,.cls-11,.cls-12,.cls-13,.cls-14,.cls-16,.cls-17,.cls-18,.cls-19,.cls-20,.cls-21,.cls-22,.cls-23,.cls-24,.cls-25,.cls-26,.cls-27,.cls-28,.cls-29,.cls-30,.cls-31,.cls-32,.cls-41,.cls-42,.cls-7,.cls-8,.cls-9{fill:none;}.cls-12,.cls-13,.cls-19,.cls-22,.cls-26,.cls-28,.cls-7{stroke-width:1.5px;}.cls-12,.cls-14,.cls-23,.cls-24,.cls-25,.cls-26,.cls-31,.cls-32,.cls-41,.cls-42,.cls-8{stroke:#000;}.cls-10,.cls-16,.cls-23{stroke-linecap:square;}.cls-11,.cls-18,.cls-24{stroke-linejoin:bevel;}.cls-13,.cls-22,.cls-26{stroke-linejoin:round;}.cls-14,.cls-21{stroke-width:1.2px;}.cls-15{font-size:18px;font-family:AvenirNext-Medium, Avenir Next;font-weight:500;}.cls-16,.cls-17,.cls-18,.cls-19,.cls-20,.cls-21,.cls-22{stroke:#ed2024;}.cls-20,.cls-25{stroke-width:1.29059px;}.cls-27{stroke-width:0.96809px;}.cls-28,.cls-29{stroke:#fff;}.cls-29,.cls-41{stroke-width:2px;}.cls-30,.cls-31{stroke-width:0.5px;}.cls-32{stroke-width:0.75px;}.cls-33{font-size:5.5px;font-family:AppleGothic;letter-spacing:0.14702em;}.cls-34{letter-spacing:0.2468em;}.cls-35{font-size:8px;letter-spacing:0.14709em;}.cls-36{font-size:6px;letter-spacing:-0.19303em;}.cls-37{letter-spacing:0.22692em;}.cls-38{letter-spacing:0.26705em;}.cls-39{letter-spacing:0.18697em;}.cls-40{letter-spacing:0.14684em;}.cls-42{stroke-width:0.25056px;}</style></defs><title>Gauge Scale</title><g id="Layer_2" data-name="Layer 2"><g id="Layer_1-2" data-name="Layer 1"><rect class="cls-1" x="0.125" y="0.125" width="438.16185" height="311.02959"/><g id="Mirror_Screw_Holes" data-name="Mirror Screw Holes"><circle class="cls-2" cx="37.43998" cy="188.94799" r="2.47945"/><circle class="cls-2" cx="399.72705" cy="186.92861" r="2.47945"/></g><g id="Holes"><circle class="cls-3" cx="15.10711" cy="59.88497" r="4.87553"/><circle class="cls-3" cx="416.23435" cy="25.19273" r="4.87553"/><circle class="cls-3" cx="387.52983" cy="292.54001" r="4.87553"/><circle class="cls-3" cx="51.16519" cy="298.37125" r="4.87553"/></g><path d="M386.60717,175.92417a6.55689,6.55689,0,0,1-8.84533,2.46065,328.75064,328.75064,0,0,0-315.94671-.64047,6.5573,6.5573,0,0,1-8.83608-2.4957l-.00019-.00033a6.58085,6.58085,0,0,1,2.55475-9.04379,341.88627,341.88627,0,0,1,328.55439.66529,6.58127,6.58127,0,0,1,2.51917,9.05434Z"/><g id="Center_Text" data-name="Center Text"><text class="cls-4" transform="translate(193.60824 210.85101) scale(0.97 1)">V <tspan class="cls-5" x="16.71432" y="0"> </tspan></text><text class="cls-6" transform="translate(215.9266 210.85101) scale(0.81 0.92)">m</text><text class="cls-4" transform="translate(231.10043 210.85101) scale(0.81 1)">A</text><line class="cls-7" x1="205.24435" y1="205.65658" x2="212.78468" y2="205.65658"/></g><g id="Scale_Labels" data-name="Scale Labels"><path class="cls-8" d="M404.66173,148.14728c-2.13048,1.86988-4.00872,3.30531-4.67841.3783l-.88966-4.26991c-.66969-2.927-2.54793-1.49159-4.67841.37829"/><line class="cls-8" x1="401.57282" y1="128.0911" x2="411.23986" y2="132.68132"/><line class="cls-8" x1="399.8603" y1="131.69768" x2="409.52734" y2="136.2879"/><line class="cls-8" x1="371.73265" y1="187.6495" x2="381.3997" y2="192.23972"/><line class="cls-8" x1="370.02014" y1="191.25608" x2="379.68718" y2="195.8463"/></g><g id="Numbers"><path class="cls-8" d="M330.97322,189.40559a1.63119,1.63119,0,1,0,2.99893,1.28432l2.24959-5.25287a1.63119,1.63119,0,0,0-2.99894-1.28433Z"/><path class="cls-8" d="M325.57331,186.37613l-.18715.68653a4.12988,4.12988,0,0,0-.03943.77915,1.63141,1.63141,0,0,0,3.12405.49209l2.24959-5.25288a1.63119,1.63119,0,0,0-2.99894-1.28432l-.6042,1.41083a1.63119,1.63119,0,1,0,2.99894,1.28432"/><path class="cls-9" d="M220.04237,167.38505a1.63119,1.63119,0,0,0,3.26238,0v-5.71431a1.63119,1.63119,0,1,0-3.26238,0Z"/><path class="cls-10" d="M217.47458,160.03955l-3.26238.00105v5.38287h.1523c0-.427,1.10006-2.07409,1.87094-2.07409.79359,0,1.23914,1.11031,1.23914,2.01119v2.02448a1.63143,1.63143,0,0,1-3.208.4194h0v-.46205"/><path class="cls-9" d="M162.91687,173.1813a1.63119,1.63119,0,0,0,3.21148-.574l-1.00548-5.62515a1.63119,1.63119,0,0,0-3.21148.574Z"/><path class="cls-9" d="M155.97641,168.25167a1.63137,1.63137,0,0,1,3.2367-.2446l.10607.5934a1.63119,1.63119,0,0,1-1.31872,1.89276l-1.38541.24763c1.66989-.30123,3.11965.18426,3.27817,1.07108l.32537,1.82028a1.63119,1.63119,0,0,1-3.21148.574l-.21447-1.19987"/><path class="cls-9" d="M278.54941,174.14132a1.63119,1.63119,0,0,0,3.23406.42888l.75122-5.66472a1.63119,1.63119,0,0,0-3.23407-.42888Z"/><polyline class="cls-9" points="273.058 165.778 276.51 166.236 276.319 167.679 271.961 175.138"/><path class="cls-9" d="M107.99206,189.20417a1.63119,1.63119,0,1,0,3.04027-1.18315l-2.07239-5.32527a1.63119,1.63119,0,1,0-3.04027,1.18316Z"/><polyline class="cls-11" points="100.729 186.406 102.725 183.519 106.089 191.961"/><ellipse class="cls-7" cx="251.64689" cy="168.79009" rx="2.19404" ry="5.53277"/><path class="cls-7" d="M246.27462,166.60506c-.24028-2.58694-.9721-3.34782-2.10721-3.34774-1.40669-.00009-2.194,1.16845-2.194,5.53277s.78735,5.53286,2.19405,5.53277c1.13585.00007,2.194-.918,2.194-3.35245,0-2.58634-1.05111-3.40161-2.19405-3.40154-1.13938-.00007-1.87243.76653-2.10989,3.377"/><ellipse class="cls-7" cx="82.36087" cy="199.86273" rx="2.19404" ry="5.53277" transform="translate(-84.06901 61.91521) rotate(-27.95)"/><ellipse class="cls-12" cx="357.51806" cy="199.23704" rx="5.53277" ry="2.19404" transform="translate(19.12411 429.46323) rotate(-63.35937)"/><ellipse class="cls-12" cx="364.35339" cy="202.66599" rx="5.53277" ry="2.19404" transform="translate(19.82961 437.46433) rotate(-63.35937)"/><ellipse class="cls-7" cx="137.98306" cy="178.36354" rx="2.19404" ry="5.53277" transform="translate(-45.94781 47.89396) rotate(-16.92464)"/><path class="cls-13" d="M128.39154,180.47168c-1.21621-2.347-.58433-6.1078,1.9551-5.70237,2.52113.40251,2.35935,4.171,1.63611,5.97894-.49014,1.22522-1.73478,3.79326-2.41226,5.17327l.176.7316,5.08392-1.547"/><ellipse class="cls-7" cx="194.19257" cy="167.41571" rx="2.19404" ry="5.53277" transform="translate(-17.64545 22.97393) rotate(-6.47689)"/><polyline class="cls-7" points="188.412 174.987 186.967 162.338 186.211 162.424 183.77 170.625 183.834 171.191 190.602 170.404"/><path class="cls-14" d="M350.42362,202.10048l5.2383-10.32894-.2393-.12136a3.76393,3.76393,0,0,1-2.93419.33385l-.07075.13952,2.05192,1.03157-4.43625,8.74744Z"/><ellipse class="cls-7" cx="307.58284" cy="179.47982" rx="5.53277" ry="2.19404" transform="translate(49.67376 425.04676) rotate(-73.86003)"/><text class="cls-15" transform="translate(295.25655 182.38038) rotate(16.14018) scale(0.72 1.00001)">8</text><path class="cls-16" d="M101.26514,125.23625l-3.07338,1.09427,1.8039,5.07161.1435-.051c-.1431-.40232.34138-2.3228,1.06768-2.58114.7477-.26594,1.53957.63084,1.84147,1.47963l.67844,1.90742a1.63142,1.63142,0,0,1-2.88191,1.47019h0l-.15484-.43533"/><path class="cls-16" d="M219.988,105.5582l-3.26238.00105v5.38287h.15231c0-.427,1.10005-2.07408,1.87093-2.07408.79359,0,1.23914,1.1103,1.23914,2.01118v2.02448a1.63143,1.63143,0,0,1-3.208.4194h0v-.462"/><path class="cls-17" d="M328.32406,124.62783l.10853-.28263a1.63119,1.63119,0,0,1,3.04555,1.16949l-.32232.8394a2.86762,2.86762,0,0,1-2.33317,1.52566,2.87917,2.87917,0,0,0-2.361,1.598l-.6623,1.72474L328.845,132.372"/><path class="cls-16" d="M337.19485,125.96257l-3.04593-1.1685-1.92963,5.02511.14219.0546c.15307-.39863,1.77045-1.54189,2.49009-1.26555.74085.28448.75877,1.48071.43583,2.32172l-.72573,1.88993a1.63143,1.63143,0,0,1-3.1451-.75845h0l.16564-.43134"/><polyline class="cls-18" points="211.183 107.445 214.106 105.503 214.106 114.59"/><ellipse class="cls-19" cx="55.47327" cy="151.35366" rx="2.19404" ry="5.53277" transform="translate(-64.46902 43.65472) rotate(-27.95)"/><ellipse class="cls-19" cx="161.01736" cy="114.99892" rx="2.19404" ry="5.53277" transform="matrix(0.98947, -0.14476, 0.14476, 0.98947, -14.95083, 24.51943)"/><path class="cls-20" d="M377.1552,149.72744l-1.01039,1.99705a2.10519,2.10519,0,1,0,3.77024,1.87421l1.06231-2.137c.51755-1.04112-.61193-2.65905-2.57447-3.63074l1.62646.80852a2.10518,2.10518,0,0,0,2.82222-.948l.3463-.69664a2.10519,2.10519,0,0,0-.948-2.82222,2.0482,2.0482,0,0,0-2.59507.58713c-.19219.28054-.69716,1.168-.69716,1.168"/><path class="cls-21" d="M156.78744,121.63214l-1.92876-11.41958-.26457.04469a3.764,3.764,0,0,1-2.16084,2.01288l.026.15425,2.2632-.39045L156.356,121.705Z"/><ellipse class="cls-19" cx="386.27112" cy="152.58896" rx="5.53277" ry="2.19404" transform="translate(76.68026 429.43235) rotate(-63.35937)"/><path class="cls-22" d="M267.704,113.33532c-.12191-2.64055,2.02645-5.79139,4.16288-4.36,2.121,1.421.39638,4.77565-1.01733,6.11471-.95807.90747-3.16353,2.71853-4.35653,3.68815l-.14645.73808,5.2646.72354"/><ellipse class="cls-19" cx="277.27649" cy="115.23619" rx="5.53277" ry="2.19404" transform="translate(117.70167 369.59324) rotate(-80.46504)"/><path class="cls-23" d="M92.03466,78.82252l-3.10146,1.012,1.66807,5.11789.14481-.04719c-.13233-.406.40317-2.31288,1.13611-2.55176.75452-.24592,1.5222.67166,1.80137,1.52819l.62735,1.92482a1.63142,1.63142,0,0,1-2.92007,1.39285h0l-.14318-.4393"/><path class="cls-8" d="M343.42845,79.65709l.10852-.28263a1.63119,1.63119,0,0,1,3.04556,1.16949l-.32232.8394A2.86762,2.86762,0,0,1,343.927,82.909a2.87918,2.87918,0,0,0-2.361,1.598l-.66229,1.72474,3.04556,1.16948"/><path class="cls-23" d="M352.29924,80.99183l-3.04593-1.1685-1.92963,5.02511.14218.0546c.15308-.39863,1.77045-1.5419,2.4901-1.26555.74085.28448.75877,1.48071.43583,2.32171l-.72573,1.88993a1.63143,1.63143,0,0,1-3.1451-.75844h0l.16564-.43135"/><path class="cls-23" d="M223.344,58.595l-3.26238.001v5.38286h.15231c0-.427,1.1-2.07408,1.87093-2.07408.79359,0,1.23914,1.1103,1.23914,2.01118v2.02448a1.63142,1.63142,0,0,1-3.20795.4194h0v-.462"/><polyline class="cls-24" points="214.539 60.482 217.462 58.54 217.462 67.627"/><ellipse class="cls-12" cx="31.46302" cy="107.66734" rx="2.19404" ry="5.53277" transform="translate(-46.79383 27.30539) rotate(-27.95)"/><ellipse class="cls-12" cx="157.02522" cy="66.47748" rx="2.19404" ry="5.53277" transform="translate(-7.37011 21.19668) rotate(-7.54603)"/><path class="cls-14" d="M152.82112,72.948l-1.58247-11.47269-.2658.03667a3.764,3.764,0,0,1-2.22073,1.9466l.02137.155,2.274-.32181,1.34017,9.71607Z"/><path class="cls-25" d="M400.109,106.02207l-1.0104,1.99705a2.10519,2.10519,0,0,0,3.77024,1.87421l1.06231-2.137c.51755-1.04113-.61192-2.659-2.57446-3.63075l1.62645.80853a2.10521,2.10521,0,0,0,2.82223-.948l.3463-.69664a2.1052,2.1052,0,0,0-.948-2.82223,2.04819,2.04819,0,0,0-2.59506.58714c-.1922.28053-.69716,1.168-.69716,1.168"/><ellipse class="cls-12" cx="409.26349" cy="109.26821" rx="5.53277" ry="2.19404" transform="translate(128.08467 426.08774) rotate(-63.35937)"/><path class="cls-26" d="M278.44618,64.30926c-.0382-2.64309,2.20887-5.7243,4.29889-4.226,2.075,1.4875.24492,4.78581-1.21049,6.07941-.98633.87668-3.248,2.617-4.47116,3.54831l-.16976.73308,5.239.88993"/><ellipse class="cls-12" cx="287.95368" cy="66.51237" rx="5.53277" ry="2.19404" transform="translate(166.07205 335.74477) rotate(-78.64995)"/></g><g id="Logo_Thing" data-name="Logo Thing"><polygon class="cls-27" points="57.414 240.914 52.058 240.914 48.271 244.701 48.271 250.056 52.058 253.843 57.414 253.843 61.201 250.056 61.201 244.701 57.414 240.914"/><polygon class="cls-9" points="56.544 243.015 52.928 243.015 50.372 245.571 50.372 249.186 52.928 251.742 56.544 251.742 59.1 249.186 59.1 245.571 56.544 243.015"/><line class="cls-9" x1="54.73594" y1="243.01459" x2="54.73594" y2="251.74231"/><line class="cls-28" x1="49.37909" y1="247.37845" x2="60.17521" y2="247.37845"/><line class="cls-29" x1="52.57828" y1="242.31156" x2="51.39737" y2="239.56593"/></g><g id="Magnet_Diagram" data-name="Magnet Diagram"><polyline class="cls-30" points="345.449 239.945 345.449 238.041 351.407 238.041 351.407 239.945"/><line class="cls-30" x1="349.50334" y1="239.94487" x2="349.50334" y2="236.10945"/><polygon class="cls-2" points="349.206 238.027 347.178 236.104 347.178 239.95 349.206 238.027"/><path d="M352.04814,241.135v6.5957a3.05621,3.05621,0,0,1-3.05274,3.05322h-1.00586a3.057,3.057,0,0,1-3.05371-3.05322V241.135h1v6.5957a2.05543,2.05543,0,0,0,2.05371,2.05322h1.00586a2.05522,2.05522,0,0,0,2.05274-2.05322V241.135h1m.5-.5h-2v7.0957a1.55475,1.55475,0,0,1-1.55274,1.55322h-1.00586a1.55522,1.55522,0,0,1-1.55371-1.55322V240.635h-2v7.0957a3.55748,3.55748,0,0,0,3.55371,3.55322h1.00586a3.557,3.557,0,0,0,3.55274-3.55322V240.635Z"/><rect class="cls-31" x="347.40831" y="240.90238" width="2.16566" height="1.15968"/><path class="cls-32" d="M359.50524,246.06405a2.26235,2.26235,0,0,1-1.91924,1.30714c-1.31974,0-2.3896-1.44809-2.3896-3.23441s1.06986-3.2344,2.3896-3.2344a2.36992,2.36992,0,0,1,2.06256,1.60012"/><polyline class="cls-32" points="357.422 244.137 359.505 244.137 359.505 247.478"/><path d="M352.04814,222.91883v6.5957a3.05621,3.05621,0,0,1-3.05274,3.05323h-1.00586a3.057,3.057,0,0,1-3.05371-3.05323v-6.5957h1v6.5957a2.05543,2.05543,0,0,0,2.05371,2.05323h1.00586a2.05523,2.05523,0,0,0,2.05274-2.05323v-6.5957h1m.5-.5h-2v7.0957a1.55476,1.55476,0,0,1-1.55274,1.55323h-1.00586a1.55523,1.55523,0,0,1-1.55371-1.55323v-7.0957h-2v7.0957a3.55749,3.55749,0,0,0,3.55371,3.55323h1.00586a3.557,3.557,0,0,0,3.55274-3.55323v-7.0957Z"/><rect class="cls-31" x="347.40831" y="222.68622" width="2.16566" height="1.15968"/><path class="cls-32" d="M359.50524,227.84789A2.26235,2.26235,0,0,1,357.586,229.155c-1.31974,0-2.3896-1.44809-2.3896-3.2344s1.06986-3.23441,2.3896-3.23441a2.36992,2.36992,0,0,1,2.06256,1.60012"/><polyline class="cls-32" points="357.422 225.921 359.505 225.921 359.505 229.262"/><path class="cls-32" d="M354.79541,250.97383a2.02452,2.02452,0,0,1,1.69687-1.88248c1.05524.014,1.79106,1.60415,2.59868,1.60415a2.94643,2.94643,0,0,0,2.03583-1.66135"/><line class="cls-31" x1="361.3089" y1="231.09341" x2="355.40217" y2="231.09341"/><line class="cls-31" x1="361.3089" y1="232.87592" x2="355.40217" y2="232.87592"/><line class="cls-31" x1="349.20564" y1="252.88697" x2="356.69536" y2="252.88697"/><text class="cls-33" transform="translate(365.32103 251.74026)">5<tspan class="cls-34" x="4.54883" y="0">0</tspan><tspan class="cls-35" x="9.64648" y="0">–</tspan><tspan class="cls-36" x="14.83105" y="0"> </tspan><tspan class="cls-37" x="15.59277" y="0">3</tspan><tspan class="cls-38" x="20.58105" y="0">0</tspan><tspan class="cls-39" x="25.79004" y="0">0</tspan><tspan class="cls-40" x="30.55859" y="0">0</tspan></text></g><line class="cls-32" x1="219.20592" y1="76.16385" x2="219.20592" y2="86.53126"/><line class="cls-41" x1="219.20592" y1="69.75709" x2="219.20592" y2="76.16385"/><line class="cls-32" x1="281.8345" y1="81.22918" x2="280.16839" y2="91.46183"/><line class="cls-41" x1="282.8641" y1="74.90569" x2="281.8345" y2="81.22918"/><line class="cls-32" x1="341.90279" y1="95.98293" x2="338.63869" y2="105.82309"/><line class="cls-41" x1="343.91991" y1="89.90199" x2="341.90279" y2="95.98293"/><line class="cls-32" x1="399.1533" y1="120.19673" x2="394.36617" y2="129.39273"/><line class="cls-41" x1="402.11162" y1="114.51387" x2="399.1533" y2="120.19673"/><line class="cls-32" x1="156.77183" y1="81.19756" x2="158.43277" y2="91.43105"/><line class="cls-41" x1="155.74542" y1="74.87355" x2="156.77183" y2="81.19756"/><line class="cls-32" x1="95.98456" y1="96.15733" x2="99.26261" y2="105.99285"/><line class="cls-41" x1="93.95881" y1="90.07926" x2="95.98456" y2="96.15733"/><line class="cls-32" x1="39.2546" y1="120.19879" x2="44.04184" y2="129.39473"/><line class="cls-41" x1="36.29622" y1="114.51596" x2="39.2546" y2="120.19879"/><path class="cls-42" d="M394.40222,129.3236a380.032,380.032,0,0,0-350.39638.002"/><line class="cls-31" x1="49.7942" y1="126.36913" x2="46.046" y2="118.8577"/><line class="cls-31" x1="55.12786" y1="123.75466" x2="49.89252" y2="112.83851"/><line class="cls-31" x1="60.49602" y1="121.22715" x2="56.96064" y2="113.54993"/><line class="cls-31" x1="65.92078" y1="118.77657" x2="61.02982" y2="107.70158"/><line class="cls-31" x1="71.4448" y1="116.38596" x2="68.13192" y2="108.55031"/><line class="cls-31" x1="76.99707" y1="114.08759" x2="72.45954" y2="102.86304"/><line class="cls-31" x1="82.51624" y1="111.9048" x2="79.43302" y2="103.92059"/><line class="cls-31" x1="88.12283" y1="109.78926" x2="83.94032" y2="98.42761"/><line class="cls-31" x1="93.68196" y1="107.79168" x2="90.83472" y2="99.6694"/><line class="cls-31" x1="105.65791" y1="103.81786" x2="103.06831" y2="95.56075"/><line class="cls-31" x1="111.39183" y1="102.07137" x2="107.95176" y2="90.46341"/><line class="cls-31" x1="117.10891" y1="100.42869" x2="114.76961" y2="92.05548"/><line class="cls-31" x1="123.02519" y1="98.83111" x2="119.95629" y2="87.1197"/><line class="cls-31" x1="128.97754" y1="97.32738" x2="126.9013" y2="88.84678"/><line class="cls-31" x1="134.83656" y1="95.94739" x2="132.14454" y2="84.14401"/><line class="cls-31" x1="140.72045" y1="94.6604" x2="138.90772" y2="86.08677"/><line class="cls-31" x1="146.57634" y1="93.47679" x2="144.25891" y2="81.59458"/><line class="cls-31" x1="152.54155" y1="92.36981" x2="150.99692" y2="83.7157"/><line class="cls-31" x1="165.10449" y1="90.35996" x2="163.84743" y2="81.63482"/><line class="cls-31" x1="171.01564" y1="89.56328" x2="169.478" y2="77.55614"/><line class="cls-31" x1="176.91808" y1="88.86184" x2="175.93344" y2="80.08344"/><line class="cls-31" x1="183.01684" y1="88.23507" x2="181.86213" y2="76.18556"/><line class="cls-31" x1="188.99106" y1="87.71702" x2="188.2864" y2="78.89785"/><line class="cls-31" x1="195.04243" y1="87.28843" x2="194.27143" y2="75.20871"/><line class="cls-31" x1="201.12946" y1="86.95437" x2="200.70916" y2="78.14418"/><line class="cls-31" x1="207.20058" y1="86.71763" x2="206.81752" y2="74.6197"/><line class="cls-31" x1="213.30812" y1="86.57618" x2="213.17035" y2="77.71625"/><line class="cls-31" x1="226.05199" y1="86.5918" x2="226.2119" y2="77.73243"/><line class="cls-31" x1="232.09993" y1="86.74627" x2="232.51135" y2="74.6493"/><line class="cls-31" x1="238.15154" y1="86.99628" x2="238.59384" y2="78.15121"/><line class="cls-31" x1="244.22125" y1="87.34307" x2="245.01944" y2="75.26498"/><line class="cls-31" x1="250.28668" y1="87.78637" x2="251.01147" y2="78.96955"/><line class="cls-31" x1="256.55826" y1="88.34708" x2="257.52345" y2="76.27893"/><line class="cls-31" x1="262.35516" y1="88.9585" x2="263.35974" y2="80.1834"/><line class="cls-31" x1="268.34045" y1="89.68433" x2="269.9097" y2="77.6697"/><line class="cls-31" x1="274.38344" y1="90.51534" x2="275.66525" y2="81.79551"/><line class="cls-31" x1="286.98017" y1="92.56836" x2="288.5501" y2="83.92113"/><line class="cls-31" x1="292.72974" y1="93.65141" x2="295.07573" y2="81.77462"/><line class="cls-31" x1="298.57075" y1="94.84664" x2="300.40335" y2="86.27933"/><line class="cls-31" x1="310.28037" y1="97.53498" x2="312.37553" y2="89.06142"/><line class="cls-31" x1="315.992" y1="98.98999" x2="319.08025" y2="87.28351"/><line class="cls-31" x1="321.7135" y1="100.54358" x2="324.06188" y2="92.17413"/><line class="cls-31" x1="327.3858" y1="102.17997" x2="330.8376" y2="90.57527"/><line class="cls-31" x1="333.12384" y1="103.93407" x2="335.7215" y2="95.68082"/><line class="cls-31" x1="345.15774" y1="107.94202" x2="348.0141" y2="99.82481"/><line class="cls-31" x1="350.676" y1="109.93226" x2="354.87096" y2="98.5749"/><line class="cls-31" x1="356.27117" y1="112.05029" x2="359.36231" y2="104.07077"/><line class="cls-31" x1="361.84523" y1="114.26223" x2="366.39656" y2="103.04307"/><line class="cls-31" x1="367.35928" y1="116.55246" x2="370.68028" y2="108.72212"/><line class="cls-31" x1="372.82696" y1="118.9255" x2="377.7287" y2="107.85513"/><line class="cls-31" x1="378.21284" y1="121.36448" x2="381.75429" y2="113.6915"/><line class="cls-31" x1="383.6064" y1="123.90993" x2="388.8521" y2="112.99859"/><line class="cls-31" x1="388.98562" y1="126.5535" x2="392.7411" y2="119.04786"/><line class="cls-31" x1="304.38197" y1="96.13166" x2="307.09976" y2="84.33399"/><line class="cls-31" x1="48.55168" y1="126.99339" x2="52.60899" y2="135.05021"/><line class="cls-31" x1="61.01914" y1="130.93949" x2="57.16667" y2="122.78257"/><line class="cls-31" x1="66.53099" y1="118.50736" x2="70.15983" y2="126.76365"/><line class="cls-31" x1="76.71037" y1="114.20377" x2="80.09739" y2="122.56272"/><line class="cls-31" x1="87.76719" y1="109.92051" x2="90.89158" y2="118.38163"/><line class="cls-31" x1="100.05485" y1="105.6215" x2="102.88774" y2="114.18668"/><line class="cls-31" x1="111.74748" y1="101.96635" x2="114.30168" y2="110.61607"/><line class="cls-31" x1="123.58226" y1="98.68601" x2="125.85508" y2="107.41349"/><line class="cls-31" x1="135.63847" y1="95.76615" x2="137.62541" y2="104.5659"/><line class="cls-31" x1="147.64469" y1="93.27122" x2="149.34507" y2="102.12473"/><line class="cls-31" x1="160.59556" y1="91.03153" x2="161.98863" y2="99.94102"/><line class="cls-31" x1="172.6995" y1="89.35362" x2="173.80522" y2="98.30564"/><line class="cls-31" x1="184.95957" y1="88.05619" x2="185.7733" y2="97.03361"/><line class="cls-31" x1="197.31199" y1="87.1525" x2="197.83256" y2="96.15739"/><line class="cls-31" x1="209.80839" y1="86.64536" x2="210.03172" y2="95.65708"/><line class="cls-31" x1="222.57389" y1="86.54588" x2="222.49382" y2="95.56425"/><line class="cls-31" x1="234.85307" y1="86.84812" x2="234.48112" y2="95.85758"/><line class="cls-31" x1="247.21171" y1="87.54936" x2="246.54594" y2="96.54289"/><line class="cls-31" x1="259.43656" y1="88.63932" x2="258.48014" y2="97.60764"/><line class="cls-31" x1="271.81248" y1="90.14951" x2="270.56236" y2="99.07822"/><line class="cls-31" x1="284.2031" y1="92.0781" x2="282.65769" y2="100.96561"/><line class="cls-31" x1="296.49809" y1="94.41135" x2="294.66093" y2="103.24052"/><line class="cls-31" x1="320.89512" y1="100.31529" x2="318.47734" y2="109.00681"/><line class="cls-31" x1="332.82908" y1="103.84135" x2="330.1284" y2="112.44633"/><line class="cls-31" x1="344.95793" y1="107.87162" x2="341.96977" y2="116.37852"/><line class="cls-31" x1="356.19963" y1="112.02238" x2="352.94248" y2="120.43546"/><line class="cls-31" x1="370.68028" y1="108.72208" x2="363.83848" y2="124.85386"/><line class="cls-31" x1="378.3549" y1="121.42997" x2="374.57164" y2="129.61802"/><line class="cls-31" x1="385.16612" y1="134.72892" x2="389.20768" y2="126.66471"/><line class="cls-31" x1="308.79539" y1="97.1721" x2="306.66612" y2="105.93485"/><line class="cls-31" x1="52.77738" y1="124.89396" x2="58.10063" y2="135.80021"/><line class="cls-31" x1="44.04184" y1="129.39473" x2="49.60654" y2="140.08411"/><line class="cls-31" x1="66.78654" y1="131.69236" x2="61.75065" y2="120.65122"/><line class="cls-31" x1="71.67942" y1="116.28672" x2="76.39579" y2="127.46281"/><line class="cls-31" x1="82.24095" y1="112.01127" x2="86.62181" y2="123.32963"/><line class="cls-31" x1="93.52519" y1="107.8466" x2="97.54356" y2="119.29374"/><line class="cls-31" x1="105.88822" y1="103.74577" x2="109.51152" y2="115.32462"/><line class="cls-31" x1="117.6486" y1="100.27866" x2="120.89701" y2="111.97251"/><line class="cls-31" x1="129.64305" y1="97.16563" x2="132.507" y2="108.95567"/><line class="cls-31" x1="141.6392" y1="94.4683" x2="144.11985" y2="106.34623"/><line class="cls-31" x1="153.63114" y1="92.17826" x2="155.7285" y2="104.13059"/><line class="cls-31" x1="166.61643" y1="90.14719" x2="168.29795" y2="102.16062"/><line class="cls-31" x1="178.76255" y1="88.66178" x2="180.05613" y2="100.72678"/><line class="cls-31" x1="191.08152" y1="87.55802" x2="191.98094" y2="99.65678"/><line class="cls-31" x1="203.49363" y1="86.85075" x2="203.99613" y2="98.97208"/><line class="cls-31" x1="215.84635" y1="86.54582" x2="215.95384" y2="98.67832"/><line class="cls-31" x1="228.70109" y1="86.64774" x2="228.3975" y2="98.77226"/><line class="cls-31" x1="241.03385" y1="87.14878" x2="240.33567" y2="99.26298"/><line class="cls-31" x1="253.36796" y1="88.04868" x2="252.2758" y2="100.12766"/><line class="cls-31" x1="265.70011" y1="89.35209" x2="264.21299" y2="101.3953"/><line class="cls-31" x1="277.5413" y1="90.98893" x2="275.67601" y2="102.97599"/><line class="cls-31" x1="290.38322" y1="93.19816" x2="288.10722" y2="105.11485"/><line class="cls-31" x1="302.6685" y1="95.74259" x2="299.99888" y2="107.58158"/><line class="cls-31" x1="314.88822" y1="98.70121" x2="311.82841" y2="110.44291"/><line class="cls-31" x1="338.63871" y1="105.8231" x2="334.84989" y2="117.24503"/><line class="cls-31" x1="326.89262" y1="102.03373" x2="323.4492" y2="113.66801"/><line class="cls-31" x1="350.50901" y1="109.8704" x2="346.31004" y2="121.25498"/><line class="cls-31" x1="366.39659" y1="103.04307" x2="357.28404" y2="125.50584"/><line class="cls-31" x1="377.72868" y1="107.85514" x2="367.91349" y2="130.02232"/><line class="cls-31" x1="383.80491" y1="124.00541" x2="378.54277" y2="134.93473"/><line class="cls-31" x1="388.79869" y1="140.08781" x2="394.36619" y2="129.39274"/><line class="cls-12" x1="48.16817" y1="137.32109" x2="51.56485" y2="143.84587"/><line class="cls-12" x1="96.51103" y1="116.35238" x2="98.93613" y2="123.26075"/><line class="cls-12" x1="155.18904" y1="101.05635" x2="156.45433" y2="108.26698"/><line class="cls-12" x1="215.92619" y1="95.55768" x2="215.99091" y2="102.86304"/><line class="cls-12" x1="276.15539" y1="99.89526" x2="275.02978" y2="107.12884"/><line class="cls-12" x1="335.83287" y1="114.28173" x2="333.52771" y2="121.23096"/><line class="cls-12" x1="386.85943" y1="143.81308" x2="390.23994" y2="137.31919"/><line class="cls-31" x1="83.05619" y1="171.49992" x2="88.0988" y2="182.40263"/><line class="cls-31" x1="115.79795" y1="171.12333" x2="111.83158" y2="159.81779"/><line class="cls-31" x1="141.42552" y1="151.00608" x2="144.29246" y2="162.61192"/><line class="cls-31" x1="171.78343" y1="145.06034" x2="173.528" y2="156.86228"/><line class="cls-31" x1="203.34922" y1="141.99827" x2="203.93168" y2="153.89469"/><line class="cls-31" x1="234.95829" y1="141.99326" x2="234.37962" y2="153.89091"/><line class="cls-31" x1="266.24449" y1="145.00437" x2="264.51377" y2="156.8104"/><line class="cls-31" x1="297.01615" y1="151.01341" x2="294.14811" y2="162.61894"/><line class="cls-31" x1="326.3148" y1="159.72483" x2="322.35844" y2="171.03324"/><line class="cls-31" x1="349.76725" y1="182.14738" x2="354.78764" y2="171.23747"/><line class="cls-31" x1="76.40745" y1="184.67747" x2="72.35179" y2="176.6912"/><line class="cls-31" x1="100.03123" y1="164.21885" x2="103.31077" y2="172.51994"/><line class="cls-31" x1="129.93022" y1="154.07047" x2="132.3809" y2="162.62968"/><line class="cls-31" x1="159.36332" y1="147.12815" x2="161.00791" y2="155.88773"/><line class="cls-31" x1="190.84208" y1="142.84074" x2="191.6212" y2="151.71415"/><line class="cls-31" x1="222.51103" y1="141.63383" x2="222.42027" y2="150.53825"/><line class="cls-31" x1="253.93608" y1="143.45542" x2="252.98289" y2="152.30436"/><line class="cls-31" x1="284.84324" y1="148.2642" x2="283.04246" y2="156.97776"/><line class="cls-31" x1="315.16508" y1="156.05113" x2="312.52836" y2="164.56425"/><line class="cls-31" x1="343.26554" y1="166.19657" x2="339.84477" y2="174.45982"/><line class="cls-31" x1="75.02177" y1="175.35075" x2="79.00852" y2="183.38377"/><line class="cls-31" x1="106.1862" y1="171.41557" x2="102.9824" y2="163.06858"/><line class="cls-31" x1="132.80607" y1="153.26139" x2="135.18144" y2="161.856"/><line class="cls-31" x1="162.47904" y1="146.5626" x2="164.03532" y2="155.32285"/><line class="cls-31" x1="194.00029" y1="142.5825" x2="194.69096" y2="151.44132"/><line class="cls-31" x1="225.58909" y1="141.67887" x2="225.41392" y2="150.57621"/><line class="cls-31" x1="257.02116" y1="143.79881" x2="255.98222" y2="152.6475"/><line class="cls-31" x1="287.91935" y1="148.91227" x2="286.0297" y2="157.6287"/><line class="cls-31" x1="318.01487" y1="156.94822" x2="315.29466" y2="165.45292"/><line class="cls-31" x1="346.16313" y1="167.41404" x2="342.66539" y2="175.63676"/><line class="cls-31" x1="81.59764" y1="182.09599" x2="77.69163" y2="174.04093"/><line class="cls-31" x1="105.9434" y1="162.04887" x2="109.0316" y2="170.33286"/><line class="cls-31" x1="135.67613" y1="152.48228" x2="137.97306" y2="161.09989"/><line class="cls-31" x1="165.57164" y1="146.03239" x2="167.04588" y2="154.82365"/><line class="cls-31" x1="197.15873" y1="142.35502" x2="197.7642" y2="151.23942"/><line class="cls-31" x1="228.72166" y1="141.75425" x2="228.46067" y2="150.64323"/><line class="cls-31" x1="260.13438" y1="144.1757" x2="259.01243" y2="152.99424"/><line class="cls-31" x1="290.96745" y1="149.58543" x2="288.99589" y2="158.275"/><line class="cls-31" x1="320.7642" y1="157.83958" x2="317.96769" y2="166.32157"/><line class="cls-31" x1="349.04191" y1="168.65678" x2="345.45848" y2="176.85978"/><line class="cls-31" x1="80.35801" y1="172.76292" x2="84.19078" y2="180.85398"/><line class="cls-31" x1="111.92692" y1="169.26078" x2="108.89054" y2="160.86564"/><line class="cls-31" x1="138.5366" y1="151.7338" x2="140.75059" y2="160.35532"/><line class="cls-31" x1="168.68956" y1="145.52903" x2="170.07603" y2="154.32121"/><line class="cls-31" x1="200.3137" y1="142.15849" x2="200.83232" y2="151.04484"/><line class="cls-31" x1="231.83671" y1="141.8588" x2="231.48979" y2="150.7584"/><line class="cls-31" x1="263.16862" y1="144.57237" x2="261.96092" y2="153.39884"/><line class="cls-31" x1="294.01481" y1="150.28941" x2="291.95884" y2="158.96262"/><line class="cls-31" x1="323.5681" y1="158.77824" x2="320.69889" y2="167.22105"/><line class="cls-31" x1="351.94474" y1="169.9437" x2="348.28703" y2="178.09831"/><line class="cls-31" x1="97.35386" y1="174.95591" x2="93.90464" y2="166.72111"/><line class="cls-31" x1="123.87596" y1="155.85716" x2="126.49717" y2="164.38151"/><line class="cls-31" x1="153.08525" y1="148.36399" x2="154.90031" y2="157.07999"/><line class="cls-31" x1="184.2617" y1="143.4625" x2="185.22258" y2="152.32798"/><line class="cls-31" x1="215.86033" y1="141.62754" x2="215.95225" y2="150.53873"/><line class="cls-31" x1="247.44602" y1="142.84245" x2="246.67137" y2="151.70353"/><line class="cls-31" x1="278.47538" y1="147.04704" x2="276.8549" y2="155.78245"/><line class="cls-31" x1="309.10954" y1="154.25095" x2="306.63993" y2="162.81101"/><line class="cls-31" x1="337.51091" y1="163.87632" x2="334.25498" y2="172.18772"/><line class="cls-31" x1="362.11698" y1="184.73344" x2="366.17137" y2="176.75755"/><line class="cls-31" x1="85.73478" y1="170.2758" x2="89.40989" y2="178.41502"/><line class="cls-31" x1="114.80601" y1="158.79142" x2="117.67625" y2="167.23399"/><line class="cls-31" x1="144.28776" y1="150.31278" x2="146.34745" y2="158.98838"/><line class="cls-31" x1="174.90605" y1="144.6027" x2="176.12522" y2="153.4445"/><line class="cls-31" x1="206.49577" y1="141.85056" x2="206.84532" y2="150.76133"/><line class="cls-31" x1="238.09599" y1="142.16673" x2="237.57792" y2="151.04472"/><line class="cls-31" x1="269.30424" y1="145.4932" x2="267.93748" y2="154.25517"/><line class="cls-31" x1="300.10063" y1="151.80027" x2="297.88316" y2="160.40952"/><line class="cls-31" x1="329.05833" y1="160.7039" x2="326.04014" y2="169.10398"/><line class="cls-31" x1="353.86943" y1="180.68967" x2="357.6923" y2="172.59379"/><line class="cls-31" x1="92.05772" y1="177.25193" x2="88.45079" y2="169.06437"/><line class="cls-31" x1="117.8043" y1="157.88725" x2="120.56797" y2="166.28129"/><line class="cls-31" x1="147.18437" y1="149.63914" x2="149.16368" y2="158.32993"/><line class="cls-31" x1="178.01689" y1="144.19285" x2="179.14756" y2="153.02305"/><line class="cls-31" x1="209.66075" y1="141.74522" x2="209.92283" y2="150.64433"/><line class="cls-31" x1="241.22331" y1="142.36295" x2="240.6193" y2="151.23765"/><line class="cls-31" x1="272.40092" y1="145.98765" x2="270.94651" y2="154.75413"/><line class="cls-31" x1="303.00718" y1="152.56065" x2="300.70726" y2="161.17259"/><line class="cls-31" x1="331.77433" y1="161.69193" x2="328.6807" y2="170.06669"/><line class="cls-31" x1="356.58488" y1="181.98191" x2="360.48155" y2="173.9296"/><line class="cls-31" x1="91.16203" y1="167.88468" x2="94.69157" y2="176.09867"/><line class="cls-31" x1="120.79508" y1="156.81913" x2="123.50425" y2="165.32713"/><line class="cls-31" x1="150.12467" y1="148.99186" x2="152.02452" y2="157.70658"/><line class="cls-31" x1="181.15202" y1="143.81077" x2="182.19926" y2="152.67387"/><line class="cls-31" x1="212.8209" y1="141.67057" x2="212.99632" y2="150.57621"/><line class="cls-31" x1="244.33195" y1="142.58762" x2="243.64439" y2="151.43449"/><line class="cls-31" x1="275.41801" y1="146.49894" x2="273.88273" y2="155.24101"/><line class="cls-31" x1="306.02568" y1="153.37949" x2="303.64311" y2="161.96775"/><line class="cls-31" x1="334.54331" y1="162.72916" x2="331.3682" y2="171.08927"/><line class="cls-31" x1="359.37205" y1="183.3682" x2="363.35508" y2="175.34037"/><line class="cls-31" x1="218.95988" y1="141.61674" x2="218.96659" y2="150.50059"/><line class="cls-31" x1="187.33323" y1="143.16392" x2="188.20768" y2="152.01749"/><line class="cls-31" x1="155.89176" y1="147.79551" x2="157.63145" y2="156.53526"/><line class="cls-31" x1="126.72044" y1="154.9979" x2="129.26676" y2="163.55692"/><line class="cls-31" x1="100.07676" y1="173.84245" x2="96.69743" y2="165.55845"/><line class="cls-31" x1="69.44755" y1="178.19724" x2="73.58628" y2="186.14744"/><line class="cls-31" x1="364.82237" y1="186.14573" x2="368.96098" y2="178.19553"/><line class="cls-31" x1="339.9199" y1="164.83195" x2="336.59251" y2="173.12986"/><line class="cls-31" x1="312.10032" y1="155.11967" x2="309.54277" y2="163.67527"/><line class="cls-31" x1="281.42625" y1="147.58097" x2="279.71574" y2="156.33109"/><line class="cls-31" x1="250.45494" y1="143.05967" x2="249.59306" y2="151.96323"/><line class="cls-12" x1="102.91691" y1="180.80473" x2="100.07676" y2="173.84245"/><line class="cls-12" x1="77.04875" y1="192.79856" x2="73.58628" y2="186.14744"/><line class="cls-12" x1="131.41587" y1="170.7808" x2="129.26676" y2="163.55692"/><line class="cls-12" x1="159.1052" y1="163.939" x2="157.63145" y2="156.53526"/><line class="cls-12" x1="188.95036" y1="159.53721" x2="188.20768" y2="152.01749"/><line class="cls-12" x1="218.97233" y1="158.05894" x2="218.96659" y2="150.50059"/><line class="cls-12" x1="248.86497" y1="159.48423" x2="249.59306" y2="151.96323"/><line class="cls-12" x1="278.26744" y1="163.73991" x2="279.71574" y2="156.33103"/><line class="cls-12" x1="307.38414" y1="170.89628" x2="309.54277" y2="163.67527"/><line class="cls-12" x1="333.79368" y1="180.10966" x2="336.59251" y2="173.1298"/><line class="cls-12" x1="361.35997" y1="192.79691" x2="364.82237" y2="186.14573"/><line class="cls-26" x1="218.97233" y1="158.05894" x2="218.96659" y2="150.50059"/><line class="cls-26" x1="188.95036" y1="159.53721" x2="188.20768" y2="152.01749"/><line class="cls-26" x1="159.1052" y1="163.939" x2="157.63145" y2="156.53526"/><line class="cls-26" x1="131.41587" y1="170.7808" x2="129.26676" y2="163.55692"/><line class="cls-26" x1="102.91691" y1="180.80473" x2="100.07676" y2="173.84245"/><line class="cls-26" x1="73.58628" y1="186.14744" x2="77.04875" y2="192.79856"/><line class="cls-26" x1="361.35997" y1="192.79691" x2="364.82237" y2="186.14573"/><line class="cls-26" x1="333.79368" y1="180.10966" x2="336.59251" y2="173.1298"/><line class="cls-26" x1="307.38414" y1="170.89628" x2="309.54277" y2="163.67527"/><line class="cls-26" x1="278.26744" y1="163.73991" x2="279.71574" y2="156.33103"/><line class="cls-26" x1="248.86497" y1="159.48423" x2="249.59306" y2="151.96323"/></g></g></svg>