<svg xmlns="http://www.w3.org/2000/svg" width="113.37248mm" height="51.57784mm" viewBox="0 0 321.37082 146.2049"><defs><style>.cls-1,.cls-10,.cls-11,.cls-12,.cls-13,.cls-14,.cls-15,.cls-16,.cls-17,.cls-18,.cls-19,.cls-2,.cls-20,.cls-21,.cls-22,.cls-23,.cls-24,.cls-25,.cls-26,.cls-27,.cls-28,.cls-29,.cls-30,.cls-31,.cls-4,.cls-5,.cls-6,.cls-7,.cls-8,.cls-9{fill:none;}.cls-1,.cls-18,.cls-19,.cls-2,.cls-20,.cls-21,.cls-24,.cls-25,.cls-26,.cls-27,.cls-28,.cls-29,.cls-4,.cls-5,.cls-6,.cls-7{stroke:#231f20;}.cls-1,.cls-10,.cls-11,.cls-13,.cls-15,.cls-17,.cls-18,.cls-19,.cls-2,.cls-20,.cls-21,.cls-22,.cls-23,.cls-25,.cls-26,.cls-27,.cls-28,.cls-30,.cls-4,.cls-5,.cls-6,.cls-7,.cls-8,.cls-9{stroke-miterlimit:10;}.cls-2{stroke-width:0.75px;}.cls-3{fill:#231f20;}.cls-4{stroke-width:0.5px;}.cls-5{stroke-width:0.48301px;}.cls-6{stroke-width:0.49527px;}.cls-7{stroke-width:0.50991px;}.cls-13,.cls-14,.cls-15,.cls-16,.cls-22,.cls-23,.cls-30,.cls-31,.cls-8{stroke:#000;}.cls-8{stroke-width:0.6px;}.cls-9{stroke:#412312;}.cls-11,.cls-12,.cls-14,.cls-29,.cls-9{stroke-width:1.05586px;}.cls-10{stroke:#faed23;stroke-width:0.25px;}.cls-11,.cls-12,.cls-17{stroke:#ed2024;}.cls-12,.cls-14,.cls-16,.cls-24,.cls-29,.cls-31{stroke-linejoin:bevel;}.cls-13,.cls-16,.cls-28{stroke-width:0.97464px;}.cls-15,.cls-25{stroke-width:0.89342px;}.cls-18,.cls-21,.cls-22{stroke-width:1.13143px;}.cls-19{stroke-width:1.53552px;}.cls-20{stroke-width:1.85878px;}.cls-21,.cls-26{stroke-linecap:round;}.cls-23{stroke-width:0.792px;}.cls-26{stroke-width:0.78348px;}.cls-27{stroke-width:1.5px;}</style></defs><title>Korrektur-Skala</title><g id="Scale"><g id="_3_volt_scale" data-name="3 volt scale"><line class="cls-1" x1="17.3324" y1="40.72608" x2="301.88206" y2="40.72608"/><line class="cls-2" x1="17.3324" y1="40.72608" x2="17.3324" y2="54.53294"/><polygon class="cls-3" points="17.333 46.053 16.457 47.01 16.457 54.741 18.207 54.741 18.207 47.01 17.333 46.053"/><line class="cls-2" x1="64.75735" y1="40.72608" x2="64.75735" y2="54.53294"/><polygon class="cls-3" points="64.757 46.053 63.882 47.01 63.882 54.741 65.632 54.741 65.632 47.01 64.757 46.053"/><line class="cls-2" x1="112.18229" y1="40.72608" x2="112.18229" y2="54.53294"/><polygon class="cls-3" points="112.182 46.053 111.307 47.01 111.307 54.741 113.057 54.741 113.057 47.01 112.182 46.053"/><line class="cls-2" x1="159.60723" y1="40.72608" x2="159.60723" y2="54.53294"/><polygon class="cls-3" points="159.607 46.053 158.732 47.01 158.732 54.741 160.482 54.741 160.482 47.01 159.607 46.053"/><line class="cls-2" x1="207.03217" y1="40.72608" x2="207.03217" y2="54.53294"/><polygon class="cls-3" points="207.032 46.053 206.157 47.01 206.157 54.741 207.907 54.741 207.907 47.01 207.032 46.053"/><line class="cls-2" x1="254.45711" y1="40.72608" x2="254.45711" y2="54.53294"/><polygon class="cls-3" points="254.457 46.053 253.582 47.01 253.582 54.741 255.332 54.741 255.332 47.01 254.457 46.053"/><line class="cls-2" x1="301.88206" y1="40.72608" x2="301.88206" y2="54.53294"/><polygon class="cls-3" points="301.882 46.053 301.007 47.01 301.007 54.741 302.757 54.741 302.757 47.01 301.882 46.053"/><line class="cls-2" x1="17.3324" y1="51.4879" x2="17.3324" y2="40.72608"/><line class="cls-2" x1="26.81739" y1="51.4879" x2="26.81739" y2="40.72608"/><line class="cls-2" x1="36.30238" y1="51.4879" x2="36.30238" y2="40.72608"/><line class="cls-2" x1="45.78737" y1="51.4879" x2="45.78737" y2="40.72608"/><line class="cls-2" x1="55.27236" y1="51.4879" x2="55.27236" y2="40.72608"/><line class="cls-2" x1="64.75735" y1="51.4879" x2="64.75735" y2="40.72608"/><line class="cls-2" x1="74.24233" y1="51.4879" x2="74.24233" y2="40.72608"/><line class="cls-2" x1="83.72732" y1="51.4879" x2="83.72732" y2="40.72608"/><line class="cls-2" x1="93.21231" y1="51.4879" x2="93.21231" y2="40.72608"/><line class="cls-2" x1="102.6973" y1="51.4879" x2="102.6973" y2="40.72608"/><line class="cls-2" x1="112.18229" y1="51.4879" x2="112.18229" y2="40.72608"/><line class="cls-2" x1="121.66728" y1="51.4879" x2="121.66728" y2="40.72608"/><line class="cls-2" x1="131.15227" y1="51.4879" x2="131.15227" y2="40.72608"/><line class="cls-2" x1="140.63725" y1="51.4879" x2="140.63725" y2="40.72608"/><line class="cls-2" x1="150.12224" y1="51.4879" x2="150.12224" y2="40.72608"/><line class="cls-2" x1="159.60723" y1="51.4879" x2="159.60723" y2="40.72608"/><line class="cls-2" x1="169.09222" y1="51.4879" x2="169.09222" y2="40.72608"/><line class="cls-2" x1="178.57721" y1="51.4879" x2="178.57721" y2="40.72608"/><line class="cls-2" x1="188.0622" y1="51.4879" x2="188.0622" y2="40.72608"/><line class="cls-2" x1="197.54718" y1="51.4879" x2="197.54718" y2="40.72608"/><line class="cls-2" x1="207.03217" y1="51.4879" x2="207.03217" y2="40.72608"/><line class="cls-2" x1="216.51716" y1="51.4879" x2="216.51716" y2="40.72608"/><line class="cls-2" x1="226.00215" y1="51.4879" x2="226.00215" y2="40.72608"/><line class="cls-2" x1="235.48714" y1="51.4879" x2="235.48714" y2="40.72608"/><line class="cls-2" x1="244.97213" y1="51.4879" x2="244.97213" y2="40.72608"/><line class="cls-2" x1="254.45711" y1="51.4879" x2="254.45711" y2="40.72608"/><line class="cls-2" x1="263.9421" y1="51.4879" x2="263.9421" y2="40.72608"/><line class="cls-2" x1="273.42709" y1="51.4879" x2="273.42709" y2="40.72608"/><line class="cls-2" x1="282.91208" y1="51.4879" x2="282.91208" y2="40.72608"/><line class="cls-2" x1="292.39707" y1="51.4879" x2="292.39707" y2="40.72608"/><line class="cls-2" x1="301.88206" y1="51.4879" x2="301.88206" y2="40.72608"/><line class="cls-2" x1="17.3324" y1="47.04446" x2="17.3324" y2="40.72608"/><line class="cls-2" x1="22.0749" y1="47.04446" x2="22.0749" y2="40.72608"/><line class="cls-2" x1="26.81739" y1="47.04446" x2="26.81739" y2="40.72608"/><line class="cls-2" x1="31.55989" y1="47.04446" x2="31.55989" y2="40.72608"/><line class="cls-2" x1="36.30238" y1="47.04446" x2="36.30238" y2="40.72608"/><line class="cls-2" x1="41.04488" y1="47.04446" x2="41.04488" y2="40.72608"/><line class="cls-2" x1="45.78737" y1="47.04446" x2="45.78737" y2="40.72608"/><line class="cls-2" x1="50.52986" y1="47.04446" x2="50.52986" y2="40.72608"/><line class="cls-2" x1="55.27236" y1="47.04446" x2="55.27236" y2="40.72608"/><line class="cls-2" x1="60.01485" y1="47.04446" x2="60.01485" y2="40.72608"/><line class="cls-2" x1="64.75735" y1="47.04446" x2="64.75735" y2="40.72608"/><line class="cls-2" x1="69.49984" y1="47.04446" x2="69.49984" y2="40.72608"/><line class="cls-2" x1="74.24233" y1="47.04446" x2="74.24233" y2="40.72608"/><line class="cls-2" x1="78.98483" y1="47.04446" x2="78.98483" y2="40.72608"/><line class="cls-2" x1="83.72732" y1="47.04446" x2="83.72732" y2="40.72608"/><line class="cls-2" x1="88.46982" y1="47.04446" x2="88.46982" y2="40.72608"/><line class="cls-2" x1="93.21231" y1="47.04446" x2="93.21231" y2="40.72608"/><line class="cls-2" x1="97.95481" y1="47.04446" x2="97.95481" y2="40.72608"/><line class="cls-2" x1="102.6973" y1="47.04446" x2="102.6973" y2="40.72608"/><line class="cls-2" x1="107.43979" y1="47.04446" x2="107.43979" y2="40.72608"/><line class="cls-2" x1="112.18229" y1="47.04446" x2="112.18229" y2="40.72608"/><line class="cls-2" x1="116.92478" y1="47.04446" x2="116.92478" y2="40.72608"/><line class="cls-2" x1="121.66728" y1="47.04446" x2="121.66728" y2="40.72608"/><line class="cls-2" x1="126.40977" y1="47.04446" x2="126.40977" y2="40.72608"/><line class="cls-2" x1="131.15227" y1="47.04446" x2="131.15227" y2="40.72608"/><line class="cls-2" x1="135.89476" y1="47.04446" x2="135.89476" y2="40.72608"/><line class="cls-2" x1="140.63725" y1="47.04446" x2="140.63725" y2="40.72608"/><line class="cls-2" x1="145.37975" y1="47.04446" x2="145.37975" y2="40.72608"/><line class="cls-2" x1="150.12224" y1="47.04446" x2="150.12224" y2="40.72608"/><line class="cls-2" x1="154.86474" y1="47.04446" x2="154.86474" y2="40.72608"/><line class="cls-2" x1="159.60723" y1="47.04446" x2="159.60723" y2="40.72608"/><line class="cls-2" x1="164.34972" y1="47.04446" x2="164.34972" y2="40.72608"/><line class="cls-2" x1="169.09222" y1="47.04446" x2="169.09222" y2="40.72608"/><line class="cls-2" x1="173.83471" y1="47.04446" x2="173.83471" y2="40.72608"/><line class="cls-2" x1="178.57721" y1="47.04446" x2="178.57721" y2="40.72608"/><line class="cls-2" x1="183.3197" y1="47.04446" x2="183.3197" y2="40.72608"/><line class="cls-2" x1="188.0622" y1="47.04446" x2="188.0622" y2="40.72608"/><line class="cls-2" x1="192.80469" y1="47.04446" x2="192.80469" y2="40.72608"/><line class="cls-2" x1="197.54718" y1="47.04446" x2="197.54718" y2="40.72608"/><line class="cls-2" x1="202.28968" y1="47.04446" x2="202.28968" y2="40.72608"/><line class="cls-2" x1="207.03217" y1="47.04446" x2="207.03217" y2="40.72608"/><line class="cls-2" x1="211.77467" y1="47.04446" x2="211.77467" y2="40.72608"/><line class="cls-2" x1="216.51716" y1="47.04446" x2="216.51716" y2="40.72608"/><line class="cls-2" x1="221.25966" y1="47.04446" x2="221.25966" y2="40.72608"/><line class="cls-2" x1="226.00215" y1="47.04446" x2="226.00215" y2="40.72608"/><line class="cls-2" x1="230.74464" y1="47.04446" x2="230.74464" y2="40.72608"/><line class="cls-2" x1="235.48714" y1="47.04446" x2="235.48714" y2="40.72608"/><line class="cls-2" x1="240.22963" y1="47.04446" x2="240.22963" y2="40.72608"/><line class="cls-2" x1="244.97213" y1="47.04446" x2="244.97213" y2="40.72608"/><line class="cls-2" x1="249.71462" y1="47.04446" x2="249.71462" y2="40.72608"/><line class="cls-2" x1="254.45711" y1="47.04446" x2="254.45711" y2="40.72608"/><line class="cls-2" x1="259.19961" y1="47.04446" x2="259.19961" y2="40.72608"/><line class="cls-2" x1="263.9421" y1="47.04446" x2="263.9421" y2="40.72608"/><line class="cls-2" x1="268.6846" y1="47.04446" x2="268.6846" y2="40.72608"/><line class="cls-2" x1="273.42709" y1="47.04446" x2="273.42709" y2="40.72608"/><line class="cls-2" x1="278.16959" y1="47.04446" x2="278.16959" y2="40.72608"/><line class="cls-2" x1="282.91208" y1="47.04446" x2="282.91208" y2="40.72608"/><line class="cls-2" x1="287.65457" y1="47.04446" x2="287.65457" y2="40.72608"/><line class="cls-2" x1="292.39707" y1="47.04446" x2="292.39707" y2="40.72608"/><line class="cls-2" x1="297.13956" y1="47.04446" x2="297.13956" y2="40.72608"/><line class="cls-2" x1="301.88206" y1="47.04446" x2="301.88206" y2="40.72608"/><line class="cls-2" x1="17.3324" y1="27.64083" x2="17.3324" y2="40.72608"/><line class="cls-2" x1="36.48932" y1="27.64083" x2="36.48932" y2="40.72608"/><line class="cls-2" x1="85.73269" y1="27.64083" x2="85.73269" y2="40.72608"/><line class="cls-2" x1="136.01836" y1="27.64083" x2="136.01836" y2="40.72608"/><line class="cls-2" x1="190.01711" y1="27.64083" x2="190.01711" y2="40.72608"/><line class="cls-2" x1="245.06563" y1="27.64083" x2="245.06563" y2="40.72608"/><line class="cls-2" x1="301.88206" y1="27.64083" x2="301.88206" y2="40.72608"/><line class="cls-2" x1="19.63049" y1="30.794" x2="19.63049" y2="40.72608"/><line class="cls-2" x1="23.06755" y1="30.794" x2="23.06755" y2="40.72608"/><line class="cls-2" x1="27.30503" y1="30.794" x2="27.30503" y2="40.72608"/><line class="cls-2" x1="31.68375" y1="30.794" x2="31.68375" y2="40.72608"/><line class="cls-2" x1="42.76021" y1="30.794" x2="42.76021" y2="40.72608"/><line class="cls-2" x1="51.21068" y1="30.794" x2="51.21068" y2="40.72608"/><line class="cls-2" x1="61.34606" y1="30.794" x2="61.34606" y2="40.72608"/><line class="cls-2" x1="72.64452" y1="30.794" x2="72.64452" y2="40.72608"/><line class="cls-2" x1="94.68983" y1="30.794" x2="94.68983" y2="40.72608"/><line class="cls-2" x1="104.28281" y1="30.794" x2="104.28281" y2="40.72608"/><line class="cls-2" x1="114.24319" y1="30.794" x2="114.24319" y2="40.72608"/><line class="cls-2" x1="124.93835" y1="30.794" x2="124.93835" y2="40.72608"/><line class="cls-2" x1="146.20414" y1="30.794" x2="146.20414" y2="40.72608"/><line class="cls-2" x1="157.24029" y1="30.794" x2="157.24029" y2="40.72608"/><line class="cls-2" x1="168.54718" y1="30.794" x2="168.54718" y2="40.72608"/><line class="cls-2" x1="179.00854" y1="30.794" x2="179.00854" y2="40.72608"/><line class="cls-2" x1="200.03723" y1="30.794" x2="200.03723" y2="40.72608"/><line class="cls-2" x1="210.42639" y1="30.794" x2="210.42639" y2="40.72608"/><line class="cls-2" x1="221.64668" y1="30.794" x2="221.64668" y2="40.72608"/><line class="cls-2" x1="233.55958" y1="30.794" x2="233.55958" y2="40.72608"/><line class="cls-2" x1="255.95935" y1="30.794" x2="255.95935" y2="40.72608"/><line class="cls-2" x1="267.16706" y1="30.794" x2="267.16706" y2="40.72608"/><line class="cls-2" x1="278.32473" y1="30.794" x2="278.32473" y2="40.72608"/><line class="cls-2" x1="290.08282" y1="30.794" x2="290.08282" y2="40.72608"/><line class="cls-2" x1="18.41286" y1="34.68291" x2="18.41286" y2="40.72608"/><line class="cls-2" x1="21.22661" y1="34.68291" x2="21.22661" y2="40.72608"/><line class="cls-2" x1="25.14576" y1="34.68291" x2="25.14576" y2="40.72608"/><line class="cls-2" x1="29.36639" y1="34.68291" x2="29.36639" y2="40.72608"/><line class="cls-2" x1="33.98898" y1="34.68291" x2="33.98898" y2="40.72608"/><line class="cls-2" x1="39.382" y1="34.68291" x2="39.382" y2="40.72608"/><line class="cls-2" x1="46.75135" y1="34.68291" x2="46.75135" y2="40.72608"/><line class="cls-2" x1="56.06352" y1="34.68291" x2="56.06352" y2="40.72608"/><line class="cls-2" x1="66.71558" y1="34.68291" x2="66.71558" y2="40.72608"/><line class="cls-2" x1="79.14297" y1="34.68291" x2="79.14297" y2="40.72608"/><line class="cls-2" x1="90.19699" y1="34.68291" x2="90.19699" y2="40.72608"/><line class="cls-2" x1="99.37518" y1="34.68291" x2="99.37518" y2="40.72608"/><line class="cls-2" x1="109.12281" y1="34.68291" x2="109.12281" y2="40.72608"/><line class="cls-2" x1="119.17192" y1="34.68291" x2="119.17192" y2="40.72608"/><line class="cls-2" x1="130.39343" y1="34.68291" x2="130.39343" y2="40.72608"/><line class="cls-2" x1="140.97849" y1="34.68291" x2="140.97849" y2="40.72608"/><line class="cls-2" x1="151.49655" y1="34.68291" x2="151.49655" y2="40.72608"/><line class="cls-2" x1="162.75156" y1="34.68291" x2="162.75156" y2="40.72608"/><line class="cls-2" x1="173.87257" y1="34.68291" x2="173.87257" y2="40.72608"/><line class="cls-2" x1="184.29015" y1="34.68291" x2="184.29015" y2="40.72608"/><line class="cls-2" x1="194.87521" y1="34.68291" x2="194.87521" y2="40.72608"/><line class="cls-2" x1="205.0583" y1="34.68291" x2="205.0583" y2="40.72608"/><line class="cls-2" x1="215.87784" y1="34.68291" x2="215.87784" y2="40.72608"/><line class="cls-2" x1="227.36732" y1="34.68291" x2="227.36732" y2="40.72608"/><line class="cls-2" x1="239.45975" y1="34.68291" x2="239.45975" y2="40.72608"/><line class="cls-2" x1="250.41328" y1="34.68291" x2="250.41328" y2="40.72608"/><line class="cls-2" x1="261.36681" y1="34.68291" x2="261.36681" y2="40.72608"/><line class="cls-2" x1="272.88978" y1="34.68291" x2="272.88978" y2="40.72608"/><line class="cls-2" x1="284.0108" y1="34.68291" x2="284.0108" y2="40.72608"/><line class="cls-2" x1="296.17022" y1="34.68291" x2="296.17022" y2="40.72608"/></g><g id="_6_volt_scale" data-name="6 volt scale"><line class="cls-1" x1="17.3324" y1="109.1167" x2="301.88206" y2="109.1167"/><line class="cls-2" x1="17.3324" y1="109.1167" x2="17.3324" y2="95.30983"/><polygon class="cls-3" points="17.333 103.789 16.457 102.833 16.457 95.102 18.207 95.102 18.207 102.833 17.333 103.789"/><line class="cls-2" x1="64.75735" y1="109.1167" x2="64.75735" y2="95.30983"/><polygon class="cls-3" points="64.757 103.789 63.882 102.833 63.882 95.102 65.632 95.102 65.632 102.833 64.757 103.789"/><line class="cls-2" x1="112.18229" y1="109.1167" x2="112.18229" y2="95.30983"/><polygon class="cls-3" points="112.182 103.789 111.307 102.833 111.307 95.102 113.057 95.102 113.057 102.833 112.182 103.789"/><line class="cls-2" x1="159.60723" y1="109.1167" x2="159.60723" y2="95.30983"/><polygon class="cls-3" points="159.607 103.789 158.732 102.833 158.732 95.102 160.482 95.102 160.482 102.833 159.607 103.789"/><line class="cls-2" x1="207.03217" y1="109.1167" x2="207.03217" y2="95.30983"/><polygon class="cls-3" points="207.032 103.789 206.157 102.833 206.157 95.102 207.907 95.102 207.907 102.833 207.032 103.789"/><line class="cls-2" x1="254.45711" y1="109.1167" x2="254.45711" y2="95.30983"/><polygon class="cls-3" points="254.457 103.789 253.582 102.833 253.582 95.102 255.332 95.102 255.332 102.833 254.457 103.789"/><line class="cls-2" x1="301.88206" y1="109.1167" x2="301.88206" y2="95.30983"/><polygon class="cls-3" points="301.882 103.789 301.007 102.833 301.007 95.102 302.757 95.102 302.757 102.833 301.882 103.789"/><line class="cls-2" x1="17.3324" y1="98.35488" x2="17.3324" y2="109.1167"/><line class="cls-2" x1="26.81739" y1="98.35488" x2="26.81739" y2="109.1167"/><line class="cls-2" x1="36.30238" y1="98.35488" x2="36.30238" y2="109.1167"/><line class="cls-2" x1="45.78737" y1="98.35488" x2="45.78737" y2="109.1167"/><line class="cls-2" x1="55.27236" y1="98.35488" x2="55.27236" y2="109.1167"/><line class="cls-2" x1="64.75735" y1="98.35488" x2="64.75735" y2="109.1167"/><line class="cls-2" x1="74.24233" y1="98.35488" x2="74.24233" y2="109.1167"/><line class="cls-2" x1="83.72732" y1="98.35488" x2="83.72732" y2="109.1167"/><line class="cls-2" x1="93.21231" y1="98.35488" x2="93.21231" y2="109.1167"/><line class="cls-2" x1="102.6973" y1="98.35488" x2="102.6973" y2="109.1167"/><line class="cls-2" x1="112.18229" y1="98.35488" x2="112.18229" y2="109.1167"/><line class="cls-2" x1="121.66728" y1="98.35488" x2="121.66728" y2="109.1167"/><line class="cls-2" x1="131.15227" y1="98.35488" x2="131.15227" y2="109.1167"/><line class="cls-2" x1="140.63725" y1="98.35488" x2="140.63725" y2="109.1167"/><line class="cls-2" x1="150.12224" y1="98.35488" x2="150.12224" y2="109.1167"/><line class="cls-2" x1="159.60723" y1="98.35488" x2="159.60723" y2="109.1167"/><line class="cls-2" x1="169.09222" y1="98.35488" x2="169.09222" y2="109.1167"/><line class="cls-2" x1="178.57721" y1="98.35488" x2="178.57721" y2="109.1167"/><line class="cls-2" x1="188.0622" y1="98.35488" x2="188.0622" y2="109.1167"/><line class="cls-2" x1="197.54718" y1="98.35488" x2="197.54718" y2="109.1167"/><line class="cls-2" x1="207.03217" y1="98.35488" x2="207.03217" y2="109.1167"/><line class="cls-2" x1="216.51716" y1="98.35488" x2="216.51716" y2="109.1167"/><line class="cls-2" x1="226.00215" y1="98.35488" x2="226.00215" y2="109.1167"/><line class="cls-2" x1="235.48714" y1="98.35488" x2="235.48714" y2="109.1167"/><line class="cls-2" x1="244.97213" y1="98.35488" x2="244.97213" y2="109.1167"/><line class="cls-2" x1="254.45711" y1="98.35488" x2="254.45711" y2="109.1167"/><line class="cls-2" x1="263.9421" y1="98.35488" x2="263.9421" y2="109.1167"/><line class="cls-2" x1="273.42709" y1="98.35488" x2="273.42709" y2="109.1167"/><line class="cls-2" x1="282.91208" y1="98.35488" x2="282.91208" y2="109.1167"/><line class="cls-2" x1="292.39707" y1="98.35488" x2="292.39707" y2="109.1167"/><line class="cls-2" x1="301.88206" y1="98.35488" x2="301.88206" y2="109.1167"/><line class="cls-2" x1="17.3324" y1="102.79831" x2="17.3324" y2="109.1167"/><line class="cls-2" x1="22.0749" y1="102.79831" x2="22.0749" y2="109.1167"/><line class="cls-2" x1="26.81739" y1="102.79831" x2="26.81739" y2="109.1167"/><line class="cls-2" x1="31.55989" y1="102.79831" x2="31.55989" y2="109.1167"/><line class="cls-2" x1="36.30238" y1="102.79831" x2="36.30238" y2="109.1167"/><line class="cls-2" x1="41.04488" y1="102.79831" x2="41.04488" y2="109.1167"/><line class="cls-2" x1="45.78737" y1="102.79831" x2="45.78737" y2="109.1167"/><line class="cls-2" x1="50.52986" y1="102.79831" x2="50.52986" y2="109.1167"/><line class="cls-2" x1="55.27236" y1="102.79831" x2="55.27236" y2="109.1167"/><line class="cls-2" x1="60.01485" y1="102.79831" x2="60.01485" y2="109.1167"/><line class="cls-2" x1="64.75735" y1="102.79831" x2="64.75735" y2="109.1167"/><line class="cls-2" x1="69.49984" y1="102.79831" x2="69.49984" y2="109.1167"/><line class="cls-2" x1="74.24233" y1="102.79831" x2="74.24233" y2="109.1167"/><line class="cls-2" x1="78.98483" y1="102.79831" x2="78.98483" y2="109.1167"/><line class="cls-2" x1="83.72732" y1="102.79831" x2="83.72732" y2="109.1167"/><line class="cls-2" x1="88.46982" y1="102.79831" x2="88.46982" y2="109.1167"/><line class="cls-2" x1="93.21231" y1="102.79831" x2="93.21231" y2="109.1167"/><line class="cls-2" x1="97.95481" y1="102.79831" x2="97.95481" y2="109.1167"/><line class="cls-2" x1="102.6973" y1="102.79831" x2="102.6973" y2="109.1167"/><line class="cls-2" x1="107.43979" y1="102.79831" x2="107.43979" y2="109.1167"/><line class="cls-2" x1="112.18229" y1="102.79831" x2="112.18229" y2="109.1167"/><line class="cls-2" x1="116.92478" y1="102.79831" x2="116.92478" y2="109.1167"/><line class="cls-2" x1="121.66728" y1="102.79831" x2="121.66728" y2="109.1167"/><line class="cls-2" x1="126.40977" y1="102.79831" x2="126.40977" y2="109.1167"/><line class="cls-2" x1="131.15227" y1="102.79831" x2="131.15227" y2="109.1167"/><line class="cls-2" x1="135.89476" y1="102.79831" x2="135.89476" y2="109.1167"/><line class="cls-2" x1="140.63725" y1="102.79831" x2="140.63725" y2="109.1167"/><line class="cls-2" x1="145.37975" y1="102.79831" x2="145.37975" y2="109.1167"/><line class="cls-2" x1="150.12224" y1="102.79831" x2="150.12224" y2="109.1167"/><line class="cls-2" x1="154.86474" y1="102.79831" x2="154.86474" y2="109.1167"/><line class="cls-2" x1="159.60723" y1="102.79831" x2="159.60723" y2="109.1167"/><line class="cls-2" x1="164.34972" y1="102.79831" x2="164.34972" y2="109.1167"/><line class="cls-2" x1="169.09222" y1="102.79831" x2="169.09222" y2="109.1167"/><line class="cls-2" x1="173.83471" y1="102.79831" x2="173.83471" y2="109.1167"/><line class="cls-2" x1="178.57721" y1="102.79831" x2="178.57721" y2="109.1167"/><line class="cls-2" x1="183.3197" y1="102.79831" x2="183.3197" y2="109.1167"/><line class="cls-2" x1="188.0622" y1="102.79831" x2="188.0622" y2="109.1167"/><line class="cls-2" x1="192.80469" y1="102.79831" x2="192.80469" y2="109.1167"/><line class="cls-2" x1="197.54718" y1="102.79831" x2="197.54718" y2="109.1167"/><line class="cls-2" x1="202.28968" y1="102.79831" x2="202.28968" y2="109.1167"/><line class="cls-2" x1="207.03217" y1="102.79831" x2="207.03217" y2="109.1167"/><line class="cls-2" x1="211.77467" y1="102.79831" x2="211.77467" y2="109.1167"/><line class="cls-2" x1="216.51716" y1="102.79831" x2="216.51716" y2="109.1167"/><line class="cls-2" x1="221.25966" y1="102.79831" x2="221.25966" y2="109.1167"/><line class="cls-2" x1="226.00215" y1="102.79831" x2="226.00215" y2="109.1167"/><line class="cls-2" x1="230.74464" y1="102.79831" x2="230.74464" y2="109.1167"/><line class="cls-2" x1="235.48714" y1="102.79831" x2="235.48714" y2="109.1167"/><line class="cls-2" x1="240.22963" y1="102.79831" x2="240.22963" y2="109.1167"/><line class="cls-2" x1="244.97213" y1="102.79831" x2="244.97213" y2="109.1167"/><line class="cls-2" x1="249.71462" y1="102.79831" x2="249.71462" y2="109.1167"/><line class="cls-2" x1="254.45711" y1="102.79831" x2="254.45711" y2="109.1167"/><line class="cls-2" x1="259.19961" y1="102.79831" x2="259.19961" y2="109.1167"/><line class="cls-2" x1="263.9421" y1="102.79831" x2="263.9421" y2="109.1167"/><line class="cls-2" x1="268.6846" y1="102.79831" x2="268.6846" y2="109.1167"/><line class="cls-2" x1="273.42709" y1="102.79831" x2="273.42709" y2="109.1167"/><line class="cls-2" x1="278.16959" y1="102.79831" x2="278.16959" y2="109.1167"/><line class="cls-2" x1="282.91208" y1="102.79831" x2="282.91208" y2="109.1167"/><line class="cls-2" x1="287.65457" y1="102.79831" x2="287.65457" y2="109.1167"/><line class="cls-2" x1="292.39707" y1="102.79831" x2="292.39707" y2="109.1167"/><line class="cls-2" x1="297.13956" y1="102.79831" x2="297.13956" y2="109.1167"/><line class="cls-2" x1="301.88206" y1="102.79831" x2="301.88206" y2="109.1167"/><line class="cls-2" x1="17.3324" y1="121.87995" x2="17.3324" y2="109.1167"/><line class="cls-2" x1="51.14884" y1="121.87995" x2="51.14884" y2="109.1167"/><line class="cls-2" x1="98.3552" y1="121.87995" x2="98.3552" y2="109.1167"/><line class="cls-2" x1="147.32851" y1="121.87995" x2="147.32851" y2="109.1167"/><line class="cls-2" x1="197.15069" y1="121.87995" x2="197.15069" y2="109.1167"/><line class="cls-2" x1="248.27698" y1="121.87995" x2="248.27698" y2="109.1167"/><line class="cls-2" x1="301.88206" y1="121.87995" x2="301.88206" y2="109.1167"/><line class="cls-2" x1="32.53703" y1="119.88" x2="32.53703" y2="109.1167"/><line class="cls-2" x1="29.3555" y1="115.80803" x2="29.3555" y2="109.1167"/><line class="cls-2" x1="19.88035" y1="115.80803" x2="19.88035" y2="109.1167"/><line class="cls-2" x1="22.83109" y1="115.80803" x2="22.83109" y2="109.1167"/><line class="cls-2" x1="26.09329" y1="115.80803" x2="26.09329" y2="109.1167"/><line class="cls-4" x1="47.18712" y1="115.80803" x2="47.18712" y2="109.1167"/><line class="cls-4" x1="36.11829" y1="115.80803" x2="36.11829" y2="109.1167"/><line class="cls-4" x1="39.88296" y1="115.80803" x2="39.88296" y2="109.1167"/><line class="cls-4" x1="43.49694" y1="115.80803" x2="43.49694" y2="109.1167"/><line class="cls-4" x1="295.8175" y1="115.80803" x2="295.8175" y2="109.1167"/><line class="cls-4" x1="279.32829" y1="115.80803" x2="279.32829" y2="109.1167"/><line class="cls-4" x1="284.52402" y1="115.80803" x2="284.52402" y2="109.1167"/><line class="cls-4" x1="289.97231" y1="115.80803" x2="289.97231" y2="109.1167"/><line class="cls-5" x1="268.41136" y1="115.80803" x2="268.41136" y2="109.1167"/><line class="cls-5" x1="253.02347" y1="115.80803" x2="253.02347" y2="109.1167"/><line class="cls-5" x1="258.14217" y1="115.80803" x2="258.14217" y2="109.1167"/><line class="cls-5" x1="263.35603" y1="115.80803" x2="263.35603" y2="109.1167"/><line class="cls-6" x1="243.24142" y1="115.80803" x2="243.24142" y2="109.1167"/><line class="cls-6" x1="227.06249" y1="115.80803" x2="227.06249" y2="109.1167"/><line class="cls-6" x1="232.70521" y1="115.80803" x2="232.70521" y2="109.1167"/><line class="cls-6" x1="238.1871" y1="115.80803" x2="238.1871" y2="109.1167"/><line class="cls-6" x1="216.26417" y1="115.80803" x2="216.26417" y2="109.1167"/><line class="cls-6" x1="201.95548" y1="115.80803" x2="201.95548" y2="109.1167"/><line class="cls-6" x1="206.49312" y1="115.80803" x2="206.49312" y2="109.1167"/><line class="cls-6" x1="211.0005" y1="115.80803" x2="211.0005" y2="109.1167"/><line class="cls-7" x1="192.00345" y1="115.80803" x2="192.00345" y2="109.1167"/><line class="cls-7" x1="177.19428" y1="115.80803" x2="177.19428" y2="109.1167"/><line class="cls-7" x1="182.17359" y1="115.80803" x2="182.17359" y2="109.1167"/><line class="cls-7" x1="186.93828" y1="115.80803" x2="186.93828" y2="109.1167"/><line class="cls-7" x1="167.04654" y1="115.80803" x2="167.04654" y2="109.1167"/><line class="cls-7" x1="151.90585" y1="115.80803" x2="151.90585" y2="109.1167"/><line class="cls-7" x1="156.79181" y1="115.80803" x2="156.79181" y2="109.1167"/><line class="cls-7" x1="161.81296" y1="115.80803" x2="161.81296" y2="109.1167"/><line class="cls-7" x1="142.50844" y1="115.80803" x2="142.50844" y2="109.1167"/><line class="cls-7" x1="127.36775" y1="115.80803" x2="127.36775" y2="109.1167"/><line class="cls-7" x1="132.35902" y1="115.80803" x2="132.35902" y2="109.1167"/><line class="cls-7" x1="137.34139" y1="115.80803" x2="137.34139" y2="109.1167"/><line class="cls-7" x1="117.00963" y1="115.80803" x2="117.00963" y2="109.1167"/><line class="cls-7" x1="102.62946" y1="115.80803" x2="102.62946" y2="109.1167"/><line class="cls-7" x1="107.39215" y1="115.80803" x2="107.39215" y2="109.1167"/><line class="cls-7" x1="112.1161" y1="115.80803" x2="112.1161" y2="109.1167"/><line class="cls-7" x1="93.47831" y1="115.80803" x2="93.47831" y2="109.1167"/><line class="cls-7" x1="77.73926" y1="115.80803" x2="77.73926" y2="109.1167"/><line class="cls-7" x1="82.89484" y1="115.80803" x2="82.89484" y2="109.1167"/><line class="cls-7" x1="88.23196" y1="115.80803" x2="88.23196" y2="109.1167"/><line class="cls-7" x1="68.40891" y1="115.80803" x2="68.40891" y2="109.1167"/><line class="cls-7" x1="55.10954" y1="115.80803" x2="55.10954" y2="109.1167"/><line class="cls-7" x1="59.49283" y1="115.80803" x2="59.49283" y2="109.1167"/><line class="cls-7" x1="63.72295" y1="115.80803" x2="63.72295" y2="109.1167"/><line class="cls-2" x1="72.85169" y1="119.88" x2="72.85169" y2="109.1167"/><line class="cls-2" x1="122.47882" y1="119.88" x2="122.47882" y2="109.1167"/><line class="cls-2" x1="172.3067" y1="119.88" x2="172.3067" y2="109.1167"/><line class="cls-2" x1="221.48984" y1="119.88" x2="221.48984" y2="109.1167"/><line class="cls-2" x1="273.7843" y1="119.88" x2="273.7843" y2="109.1167"/></g></g><g id="Decorations"><line class="cls-8" x1="82.71263" y1="19.10536" x2="229.33636" y2="19.10536"/><line class="cls-8" x1="55.02989" y1="74.43224" x2="265.0191" y2="74.43224"/><line class="cls-8" x1="55.0435" y1="82.57602" x2="265.00548" y2="82.57602"/><line class="cls-8" x1="82.83456" y1="137.61806" x2="230.61673" y2="137.61806"/><g id="Border"><rect class="cls-9" x="0.52793" y="0.52793" width="320.31496" height="145.14904"/><rect class="cls-9" x="91.83514" y="-83.3309" width="136.64502" height="311.81104" transform="translate(233.2602 -87.05511) rotate(90)"/></g><g id="Nail_Holes" data-name="Nail Holes"><circle class="cls-10" cx="309.4651" cy="134.61932" r="1.54797"/><circle class="cls-10" cx="11.90572" cy="134.61932" r="1.54797"/><circle class="cls-10" cx="11.90572" cy="11.58558" r="1.54797"/><circle class="cls-10" cx="309.4651" cy="11.58558" r="1.54797"/></g></g><g id="Lettering"><g id="_6v_Numbers" data-name="6v Numbers"><g id="_6v_Top_Big" data-name="6v Top Big"><polyline class="cls-11" points="109.478 94.363 109.478 85.012 109.194 85.012 106.573 86.746"/><rect class="cls-12" x="15.26918" y="85.27199" width="4.25713" height="8.83138" rx="2.12856"/><rect class="cls-12" x="113.65655" y="85.27199" width="4.25713" height="8.83138" rx="2.12856"/><rect class="cls-12" x="207.63508" y="85.27199" width="4.25713" height="8.83138" rx="2.12856"/><rect class="cls-12" x="303.33273" y="85.27199" width="4.25713" height="8.83138" rx="2.12856"/><path class="cls-11" d="M200.42191,87.156a3.55872,3.55872,0,0,1-.05679-.59512,1.87177,1.87177,0,0,1,1.96089-1.6075,1.66744,1.66744,0,0,1,1.858,1.70109,2.82976,2.82976,0,0,1-.7271,1.82759c-.66584.76238-1.82482,2.06032-2.42125,2.75736a3.11359,3.11359,0,0,0-.76251,2.12662h4.51889" transform="translate(0.52793 0.52793)"/><path class="cls-11" d="M294.45767,91.32146a2.52418,2.52418,0,1,0,2.51406-2.70016v-.37692h.06942a1.752,1.752,0,1,0-2.06886-1.72305" transform="translate(0.52793 0.52793)"/></g><g id="_6v_Bottom" data-name="6v Bottom"><polyline class="cls-13" points="51.357 129.029 51.357 123.394 50.753 123.394 49.768 124.296"/><rect class="cls-14" x="15.89997" y="123.6774" width="3.12322" height="5.06815" rx="1.44133"/><path class="cls-13" d="M247.01955,127.27a1.70758,1.70758,0,0,0,1.767,1.02h0c.94869,0,1.56726-.561,1.56726-1.72123h0a1.65019,1.65019,0,0,0-1.56206-1.734h0c-.7088,0-1.57246.49725-1.57246.89451v-2.65223h3.0161" transform="translate(0.52793 0.52793)"/><path class="cls-15" d="M99.62824,128.25651H96.67043a1.96415,1.96415,0,0,1,.919-1.87969s.741-.46735,1.06388-.66713a1.47032,1.47032,0,0,0,.722-1.31727,1.33053,1.33053,0,0,0-1.37439-1.28183,1.40506,1.40506,0,0,0-1.33055,1.41086,1.126,1.126,0,0,0,.02527.1996" transform="translate(0.52793 0.52793)"/><polyline class="cls-13" points="197.887 128.851 197.887 123.572 197.338 123.572 195.222 126.704 195.222 126.739 199.594 126.739"/><path class="cls-15" d="M145.18947,127.092a2.13916,2.13916,0,0,0,1.89969,1.04931,1.19633,1.19633,0,0,0,1.32253-1.18083c0-.71089-.52347-1.20283-1.472-1.20283v-.198h.03854a1.17056,1.17056,0,0,0,1.17507-1.15211c0-.58373-.35878-1.13451-1.31831-1.18019a1.2391,1.2391,0,0,0-1.3103,1.03786" transform="translate(0.52793 0.52793)"/><path class="cls-16" d="M302.3452,123.80334a1.55554,1.55554,0,0,0-1.27407-.67852h0a1.642,1.642,0,0,0-1.59615,1.583,8.515,8.515,0,0,0,.04089,2.13517" transform="translate(0.52793 0.52793)"/><ellipse class="cls-16" cx="301.59912" cy="127.14295" rx="1.57063" ry="1.62725"/></g><g id="_6v_Top_Small" data-name="6v Top Small"><polyline class="cls-17" points="156.411 94.363 156.411 86.887 156.194 86.887 154.196 88.273"/><path class="cls-17" d="M63.14328,92.30983A1.49524,1.49524,0,0,0,64.7669,93.615h0a1.49524,1.49524,0,0,0,1.62362-1.30515V89.97611A1.49524,1.49524,0,0,0,64.76691,88.671h0a1.49524,1.49524,0,0,0-1.62362,1.30515V86.57926h3.62149" transform="translate(0.52793 0.52793)"/><path class="cls-17" d="M158.34673,92.30983a1.49525,1.49525,0,0,0,1.62363,1.30515h0a1.49524,1.49524,0,0,0,1.62363-1.30515V89.97611a1.49524,1.49524,0,0,0-1.62363-1.30515h0a1.49525,1.49525,0,0,0-1.62363,1.30515V86.57926h3.6215" transform="translate(0.52793 0.52793)"/><path class="cls-17" d="M253.62068,92.30983A1.49524,1.49524,0,0,0,255.2443,93.615h0a1.49524,1.49524,0,0,0,1.62362-1.30515V89.97611a1.49524,1.49524,0,0,0-1.62362-1.30515h0a1.49524,1.49524,0,0,0-1.62362,1.30515V86.57926h3.62149" transform="translate(0.52793 0.52793)"/><path class="cls-17" d="M248.74391,88.49511a2.97707,2.97707,0,0,1-.04332-.4758,1.4489,1.4489,0,0,1,1.49573-1.28523,1.29722,1.29722,0,0,1,1.41728,1.36005,2.324,2.324,0,0,1-.55462,1.4612c-.50789.60953-1.39194,1.64725-1.84688,2.20455a2.56043,2.56043,0,0,0-.58163,1.70028h3.44692" transform="translate(0.52793 0.52793)"/></g></g><g id="_6v_Title" data-name="6v Title"><polygon id="k" class="cls-3" points="157.39 133.429 158.749 132.436 158.749 131.809 157.414 131.809 155.536 133.183 155.536 130.018 155.086 129.793 154.547 129.793 154.131 130.18 154.131 136.03 154.423 136.335 155.536 136.335 155.536 134.784 156.212 134.29 157.971 136.335 158.633 136.335 159.355 135.713 157.39 133.429"/><polygon id="k-2" data-name="k" class="cls-3" points="118.52 133.783 119.879 132.79 119.879 132.164 118.545 132.164 116.666 133.537 116.666 130.372 116.216 130.147 115.677 130.147 115.261 130.534 115.261 136.384 115.553 136.689 116.666 136.689 116.666 135.139 117.342 134.644 119.101 136.689 119.763 136.689 120.486 136.068 118.52 133.783"/><path id="a" class="cls-3" d="M165.37774,132.08253c-.17351-.25188-.70952-.70218-2.0747-.85948a5.93812,5.93812,0,0,0-1.88082.13029,1.35509,1.35509,0,0,0-.63416.35632v.29358l.53753.4718.23184-.1718a1.33349,1.33349,0,0,1,.549-.108c.2848-.02612.608-.01786.84545-.01519a1.89129,1.89129,0,0,1,.76139.10007.19174.19174,0,0,1-.11793.362,4.07044,4.07044,0,0,0-1.77034.145c-.61546.14856-1.6859.82816-1.6859,1.72906,0,2.06985,3.44933,1.48463,3.78552.95736l.40765.33353h1.12659v-3.46419A.45824.45824,0,0,0,165.37774,132.08253Zm-2.32984,2.63785c-.68036.11638-1.26915-.007-1.31509-.27556s.26464-.64707.98533-.73146c.68208-.07986,1.46058-.17069,1.46058.28448C164.17872,134.42236,163.72827,134.604,163.0479,134.72038Z" transform="translate(0.52793 0.52793)"/><path id="a-2" data-name="a" class="cls-3" d="M175.58,132.08253c-.17351-.25188-.70952-.70218-2.0747-.85948a5.93815,5.93815,0,0,0-1.88082.13029,1.35516,1.35516,0,0,0-.63416.35632v.29358l.53753.4718.23184-.1718a1.33353,1.33353,0,0,1,.549-.108c.28481-.02612.608-.01786.84546-.01519a1.89125,1.89125,0,0,1,.76138.10007.19174.19174,0,0,1-.11793.362,4.07044,4.07044,0,0,0-1.77034.145c-.61546.14856-1.6859.82816-1.6859,1.72906,0,2.06985,3.44934,1.48463,3.78553.95736l.40764.33353h1.12659v-3.46419A.45817.45817,0,0,0,175.58,132.08253Zm-2.32984,2.63785c-.68036.11638-1.26915-.007-1.31509-.27556s.26465-.64707.98533-.73146c.68208-.07986,1.46058-.17069,1.46058.28448C174.381,134.42236,173.93053,134.604,173.25016,134.72038Z" transform="translate(0.52793 0.52793)"/><rect id="l" class="cls-3" x="168.17202" y="129.80491" width="1.39143" height="6.54221"/><rect id="l-2" data-name="l" class="cls-3" x="209.60634" y="129.80491" width="1.39143" height="6.54221"/><path id="o" class="cls-3" d="M93.4294,131.39335c-1.65357,0-2.99405,1.0246-2.99405,2.2885s1.34048,2.2885,2.99405,2.2885,2.994-1.02459,2.994-2.2885S95.083,131.39335,93.4294,131.39335Zm0,3.50623a1.26,1.26,0,1,1,1.58348-1.21773A1.4372,1.4372,0,0,1,93.4294,134.89958Z" transform="translate(0.52793 0.52793)"/><path id="t" class="cls-3" d="M123.5142,134.8832a2.67159,2.67159,0,0,1-1.00461-.00885.36514.36514,0,0,1-.27853-.35423v-1.70948h1.42262v-1.16892h-1.42262v-1.58546h-1.33539v1.58547h-.95547v1.16892h.95547v2.046a1.12238,1.12238,0,0,0,1.1309,1.11367h.7531a2.1781,2.1781,0,0,0,.94809-.18043Z" transform="translate(0.52793 0.52793)"/><path id="u" class="cls-3" d="M124.85315,131.3359h1.39135v2.85439c0,.33159.57015.52412.97776.52412.27475,0,1.29892-.27508,1.29892-.88783V131.3359h1.31347v4.65978h-1.28492v-.86989a3.53728,3.53728,0,0,1-.8678.60354,2.982,2.982,0,0,1-1.11032.29848,1.653,1.653,0,0,1-1.71846-1.49634Z" transform="translate(0.52793 0.52793)"/><path class="cls-3" d="M136.16941,131.78052a2.36009,2.36009,0,0,0-1.17518-.29128,2.11228,2.11228,0,0,0-1.47986.54084v-.65128h-1.39906v4.60611h1.39906l-.00237-2.163v-.25253c0-.57552.79059-.76441,1.25765-.76441a3.18912,3.18912,0,0,1,.81428.07124Z" transform="translate(0.52793 0.52793)"/><path class="cls-3" d="M106.04534,131.78052a2.36008,2.36008,0,0,0-1.17517-.29128,2.1123,2.1123,0,0,0-1.47987.54084v-.65128h-1.39906v4.60611h1.39906l-.00236-2.163v-.25253c0-.57552.79058-.76441,1.25765-.76441a3.18905,3.18905,0,0,1,.81427.07124Z" transform="translate(0.52793 0.52793)"/><path class="cls-3" d="M101.32459,131.78052a2.36009,2.36009,0,0,0-1.17518-.29128,2.11228,2.11228,0,0,0-1.47986.54084v-.65128H97.27049v4.60611h1.39906l-.00237-2.163v-.25253c0-.57552.79059-.76441,1.25765-.76441a3.18912,3.18912,0,0,1,.81428.07124Z" transform="translate(0.52793 0.52793)"/><path class="cls-18" d="M112.48,134.50135a2.182,2.182,0,0,1-2.16974,1.01442c-.79864.00007-2.31976-.32959-2.31976-1.83561,0-1.17776,1.25673-1.74883,2.25747-1.8269a2.4037,2.4037,0,0,1,1.99587.8623,2.08062,2.08062,0,0,1,.2616.75909l-4.5.0001" transform="translate(0.52793 0.52793)"/><path class="cls-3" d="M150.48031,129.53064a3.79167,3.79167,0,0,1,1.30628.836l-.8186,1.09727a3.36435,3.36435,0,0,0-1.35853-.78376,2.01538,2.01538,0,0,0-1.39336,0,.672.672,0,0,0-.418.38317.57762.57762,0,0,0,.13934.50509c.261.29759.933.1141,1.83.27408a2.80506,2.80506,0,0,1,1.79271.80578,1.80472,1.80472,0,0,1,.45284,1.16694,1.52418,1.52418,0,0,1-.60018,1.23628c-1.64218,1.29216-3.7988.5866-4.43334.36608a1.79826,1.79826,0,0,1-.78324-.52238,2.03873,2.03873,0,0,1-.5051-1.21919l1.621-.06606a1.107,1.107,0,0,0,.20723.43169,1.66632,1.66632,0,0,0,1.30628.627,1.32274,1.32274,0,0,0,1.07985-.45284.83534.83534,0,0,0,.15675-.80119c-.158-.2826-.57461-.21836-1.32369-.3135-.843-.10708-1.82911-.23232-2.28163-.88827a1.54861,1.54861,0,0,1-.22642-1.07985,2.2483,2.2483,0,0,1,1.34111-1.48045A3.71655,3.71655,0,0,1,150.48031,129.53064Z" transform="translate(0.52793 0.52793)"/><line class="cls-19" x1="84.49582" y1="130.30083" x2="84.49582" y2="136.33499"/><line class="cls-19" x1="90.13361" y1="129.74694" x2="84.49582" y2="134.56332"/><line class="cls-20" x1="86.89594" y1="132.51289" x2="89.98112" y2="136.97765"/><path class="cls-3" d="M215.28681,134.62463a2.86675,2.86675,0,0,1-1.09436-.00979.40275.40275,0,0,1-.30341-.39185v-1.891h1.54972v-1.29307H213.889V129.285h-1.12613l-.32857.33561v1.41825H211.3935V132.332h1.04084v2.26334a1.23194,1.23194,0,0,0,1.23194,1.23195h.82038a2.34269,2.34269,0,0,0,1.0328-.1996Z" transform="translate(0.52793 0.52793)"/><path id="o-2" data-name="o" class="cls-3" d="M204.68617,131.13512c-1.65357,0-2.99405,1.0246-2.99405,2.2885s1.34048,2.2885,2.99405,2.2885,2.994-1.02459,2.994-2.2885S206.33973,131.13512,204.68617,131.13512Zm0,3.50623a1.26,1.26,0,1,1,1.58348-1.21773A1.43721,1.43721,0,0,1,204.68617,134.64135Z" transform="translate(0.52793 0.52793)"/><polygon class="cls-3" points="200.817 130.179 198.59 134.567 197.076 130.179 195.452 130.179 197.834 137.086 199.034 137.086 202.539 130.179 200.817 130.179"/><path class="cls-21" d="M227.68672,131.89733l-.2574.38949a2.424,2.424,0,0,1-3.887.36551l-.10234-.11022-.10235-.11023a2.424,2.424,0,0,0-3.887.36551l-.25739.38949" transform="translate(0.52793 0.52793)"/><rect class="cls-3" x="138.34343" y="133.40074" width="4.90949" height="0.91612"/><path class="cls-3" d="M189.16016,131.424a3.7798,3.7798,0,0,0-1.06739.15057l.00007-.00012c-.61615-.35486.35919-.792,1.38946-.7793a2.43312,2.43312,0,0,1,1.347.393l.50079-.49463v-.47736a3.69861,3.69861,0,0,0-1.83429-.50445,2.91831,2.91831,0,0,0-3.141,2.26575,6.86618,6.86618,0,0,0,.08374,1.64825l.00989-.01208a2.59873,2.59873,0,0,0,2.71167,1.66c1.51867,0,2.74981-.86176,2.74981-1.92481S190.67883,131.424,189.16016,131.424Zm0,2.949c-.80316,0-1.45429-.45856-1.45429-1.02424s.65113-1.02423,1.45429-1.02423,1.45434.45856,1.45434,1.02423S189.96338,134.37308,189.16016,134.37308Z" transform="translate(0.52793 0.52793)"/></g><g id="Title"><polygon points="142.029 70.314 143.388 69.321 142.549 68.332 140.175 70.068 140.175 66.678 138.77 66.678 138.77 73.22 140.175 73.22 140.175 71.669 140.851 71.175 142.883 73.536 143.995 72.598 142.029 70.314"/><path d="M149.15631,68.82529c-.17351-.25188-.70951-.70218-2.0747-.85947a5.938,5.938,0,0,0-1.88081.13029,1.35506,1.35506,0,0,0-.63417.35632V68.746l.53754.47179.23183-.17179a1.3334,1.3334,0,0,1,.549-.108c.28481-.02613.60806-.01786.84546-.01519a1.89119,1.89119,0,0,1,.76138.10007.19174.19174,0,0,1-.11793.362,4.96483,4.96483,0,0,0-1.83521.06814c-.3237.05935-1.89522.29448-1.8863,1.75265.01391,2.2751,3.71461,1.53792,4.0508,1.01064l.40764.33354h1.12659V69.08564A.45822.45822,0,0,0,149.15631,68.82529Zm-2.32984,2.63786c-.68036.11638-1.26915-.007-1.31508-.27556s.26464-.64708.98532-.73146c.68208-.07987,1.46058-.17069,1.46058.28448C147.95729,71.16513,147.50684,71.34677,146.82647,71.46315Z" transform="translate(0.52793 0.52793)"/><path d="M158.58136,68.82529c-.17351-.25188-.70951-.70218-2.0747-.85947a5.938,5.938,0,0,0-1.88081.13029c-.46668.154-.5303.2336-.63417.35632a1.4163,1.4163,0,0,0-.10745.19926l.645.56611.23183-.17179a1.3334,1.3334,0,0,1,.549-.108c.28481-.02613.60806-.01786.84546-.01519a1.89119,1.89119,0,0,1,.76138.10007.19174.19174,0,0,1-.11793.362,4.07045,4.07045,0,0,0-1.77034.145c-.61546.14856-1.68589.82817-1.68589,1.72907,0,2.06985,3.31653,1.42207,3.83956,1.03464a1.05719,1.05719,0,0,0,.3536-.35962v.61587h1.12659V69.08564A.45822.45822,0,0,0,158.58136,68.82529Zm-2.32984,2.63786c-.68036.11638-1.26915-.007-1.31508-.27556s.26464-.64708.98532-.73146c.68208-.07987,1.46059-.17069,1.46059.28448C157.38235,71.16513,156.93189,71.34677,156.25152,71.46315Z" transform="translate(0.52793 0.52793)"/><path d="M79.01339,77.49188c-.12146-.17632-.49666-.49153-1.45229-.60164a4.15643,4.15643,0,0,0-1.31657.09121c-.32667.10783-.3712.16352-.44391.24942a.99069.99069,0,0,0-.07522.13949l.45149.39627.16228-.12025a.93356.93356,0,0,1,.38428-.07563c.19937-.01828.42564-.0125.59182-.01063a1.32378,1.32378,0,0,1,.533.07005.13422.13422,0,0,1-.08255.25341,2.84929,2.84929,0,0,0-1.23924.1015c-.43082.104-1.18013.57972-1.18013,1.21035,0,1.44889,2.32158.99545,2.6877.72425a.74007.74007,0,0,0,.24752-.25174v.43111h.78862V77.67412A.32074.32074,0,0,0,79.01339,77.49188ZM77.3825,79.33837c-.47625.08147-.8884-.00489-.92056-.19289s.18525-.453.68973-.512c.47746-.05591,1.02241-.11948,1.02241.19914C78.17408,79.12976,77.85876,79.25691,77.3825,79.33837Z" transform="translate(0.52793 0.52793)"/><rect x="122.73525" y="68.52791" width="1.37388" height="4.69191"/><polyline points="127.528 73.22 127.528 69.753 126.073 69.753 126.073 73.22"/><polyline points="130.571 73.22 130.571 69.753 129.116 69.753 129.116 73.22"/><path d="M128.58805,69.76516c0-.39507-.27016-.49539-.6825-.50067-.173-.00222-.90574.0792-.90574.50067l-.75693-.81219A1.85886,1.85886,0,0,1,127.94823,68a2.11576,2.11576,0,0,1,1.83676.63807.93566.93566,0,0,1,.25776.587h0Z" transform="translate(0.52793 0.52793)"/><path d="M125.54511,69.92679c0-.39507-.33406-.49539-.84393-.50067-.2139-.00221-1.12.0792-1.12.50067l-1.0235-.96341A4.45307,4.45307,0,0,1,125.2301,68c1.43634,0,1.54925.42471,1.79507.79971a2.09117,2.09117,0,0,1,.31873.587l-.01211-.03663Z" transform="translate(0.52793 0.52793)"/><polyline points="225.816 73.22 225.816 68.528 224.352 68.528 224.352 72.881 224.659 73.22"/><polyline points="229.458 73.22 229.458 69.753 227.908 69.753 227.908 72.881 228.215 73.22"/><polyline points="232.776 73.22 232.776 69.753 231.289 69.753 231.289 72.881 231.595 73.22"/><path d="M230.761,69.92679c0-.39507-.4207-.4109-.86-.41618-.1843-.00222-.97062.126-.97062.54745l-1.00069-.833a2.7065,2.7065,0,0,1,2.24986-1.02094c1.50123,0,2.06841.69454,2.06841,1.02094a1.91379,1.91379,0,0,1-.07557.34256Z" transform="translate(0.52793 0.52793)"/><path d="M227.38049,70.05806c0-.39507-.35589-.63193-.89914-.63193-.4814,0-1.19325.31291-1.19325.73438l-.8177-.88038a3.03976,3.03976,0,0,1,2.44494-1.12873c1.5303,0,1.73063.62385,1.99253.99884.14368.20572.30162-.022.38908.23645l-.09562.178Z" transform="translate(0.52793 0.52793)"/><rect x="97.53698" y="66.6776" width="1.39143" height="6.54221"/><rect id="l-3" data-name="l" x="151.12226" y="66.6776" width="1.39143" height="6.54221"/><rect id="l-4" data-name="l" x="249.35963" y="75.92616" width="0.974" height="4.57954"/><path id="c" d="M76.44122,71.29454l-.92706-.55791a2.28352,2.28352,0,0,1-.58047.73743,2.06328,2.06328,0,0,1-1.11242.25839,1.3187,1.3187,0,0,1-1.3187-1.3187,1.20667,1.20667,0,0,1,1.3187-1.3187,1.31249,1.31249,0,0,1,1.21377.45277l1.23073-.37893a1.39134,1.39134,0,0,0-.31086-.59139,2.74022,2.74022,0,0,0-1.86025-.69967c-1.65082.00935-3.15181.87021-3.1518,2.45511,0,1.66345,1.2559,2.52735,2.908,2.52735a2.5807,2.5807,0,0,0,2.15984-.89068A4.93825,4.93825,0,0,0,76.44122,71.29454Z" transform="translate(0.52793 0.52793)"/><path id="c-2" data-name="c" d="M166.4101,79.32154l-.649-.39053a1.59852,1.59852,0,0,1-.40633.5162,1.44425,1.44425,0,0,1-.77869.18088.9231.9231,0,0,1-.92309-.9231.84467.84467,0,0,1,.92309-.92309.91875.91875,0,0,1,.84964.31694l.86151-.26525a.974.974,0,0,0-.2176-.414,1.91819,1.91819,0,0,0-1.30218-.48977c-1.15557.00655-2.20626.60914-2.20626,1.71857,0,1.16442.87913,1.76915,2.0356,1.76915a1.80651,1.80651,0,0,0,1.51189-.62347A3.45645,3.45645,0,0,0,166.4101,79.32154Z" transform="translate(0.52793 0.52793)"/><path id="h" d="M81.99938,68.5289a2.76457,2.76457,0,0,0-2.17929-.63808,2.596,2.596,0,0,0-1.42359.34021l.01356-2.08136h-1.4398v6.54222h1.43985l0-2.84922,0,0c0-.49351.62968-.68835,1.15552-.68835.343,0,1.07383.21574,1.07383.61081v2.92673h1.66716l-.00143-3.576A.87312.87312,0,0,0,81.99938,68.5289Z" transform="translate(0.52793 0.52793)"/><path id="h-2" data-name="h" d="M170.64374,77.2648a1.93522,1.93522,0,0,0-1.5255-.44665,1.81726,1.81726,0,0,0-.99652.23814l.0095-1.457h-1.00787V80.1789h1.0079l0-1.99446,0,0c0-.34546.44079-.48185.80887-.48185.24012,0,.75168.151.75168.42757V80.1789h1.167l-.001-2.50318A.61122.61122,0,0,0,170.64374,77.2648Z" transform="translate(0.52793 0.52793)"/><path id="o-3" data-name="o" class="cls-3" d="M117.69135,67.90623c-1.78358,0-3.22946,1.10516-3.22946,2.46844s1.44588,2.46845,3.22946,2.46845,3.22947-1.10516,3.22947-2.46845S119.47494,67.90623,117.69135,67.90623Zm0,3.78192a1.359,1.359,0,1,1,1.708-1.31348A1.55021,1.55021,0,0,1,117.69135,71.68815Z" transform="translate(0.52793 0.52793)"/><path id="o-4" data-name="o" class="cls-3" d="M245.6772,76.69944a1.79068,1.79068,0,1,0,2.26063,1.72791A2.04884,2.04884,0,0,0,245.6772,76.69944Zm0,2.64735a.95133.95133,0,1,1,1.1956-.91944A1.08515,1.08515,0,0,1,245.6772,79.34679Z" transform="translate(0.52793 0.52793)"/><path id="d" d="M168.99108,66.14967v2.29156a2.96541,2.96541,0,0,0-1.57793-.41126c-1.56338,0-2.83074.77529-2.83074,2.3155,0,1.61125.9276,2.34642,2.491,2.34642a2.79008,2.79008,0,0,0,1.9177-.77882v.77881h1.39143V66.14967ZM167.494,71.57756a1.25555,1.25555,0,1,1,1.49711-1.23209A1.38414,1.38414,0,0,1,167.494,71.57756Z" transform="translate(0.52793 0.52793)"/><path id="d-2" data-name="d" d="M218.212,75.53626v1.60409a2.0758,2.0758,0,0,0-1.10456-.28788c-1.09436,0-1.98151.5427-1.98151,1.62084,0,1.12788.64931,1.6425,1.74368,1.6425a1.95312,1.95312,0,0,0,1.34239-.54517v.54516h.974V75.53626Zm-1.048,3.79952a.87889.87889,0,1,1,1.048-.86247A.9689.9689,0,0,1,217.164,79.33578Z" transform="translate(0.52793 0.52793)"/><path id="d-3" data-name="d" d="M141.43657,75.5826v4.57954h.974V79.617a1.95312,1.95312,0,0,0,1.34239.54517c1.09437,0,1.74368-.51462,1.74368-1.64249,0-1.07815-.88715-1.62085-1.98151-1.62085a2.0758,2.0758,0,0,0-1.10456.28788V75.5826Zm.974,2.93706a1.06793,1.06793,0,1,1,1.048.86246A.9689.9689,0,0,1,142.41057,78.51966Z" transform="translate(0.52793 0.52793)"/><path id="t-2" data-name="t" d="M108.71332,71.48927a2.86655,2.86655,0,0,1-1.09436-.00979.40274.40274,0,0,1-.30342-.39185v-1.891h1.54972V67.90353h-1.54972V66.14968h-1.4547v1.75386H104.82V69.1966h1.04083v2.26334a1.23255,1.23255,0,0,0,1.23194,1.23195,7.69671,7.69671,0,0,0,1.16463-.08581c.597-.095.68855-.11379.68855-.11379Z" transform="translate(0.52793 0.52793)"/><path d="M250.61984,71.48927a2.86655,2.86655,0,0,1-1.09436-.00979.40274.40274,0,0,1-.30342-.39185v-1.891h1.54972V67.90353h-1.54972V66.14968h-1.4547v1.75386h-1.04083V69.1966h1.04083v2.26334a1.23194,1.23194,0,0,0,1.23194,1.23195h.82038a2.34264,2.34264,0,0,0,1.0328-.1996Z" transform="translate(0.52793 0.52793)"/><path d="M253.35862,79.13594a2.00659,2.00659,0,0,1-.76605-.00685.28193.28193,0,0,1-.21239-.27429V77.53107H253.465v-.90514h-1.08481v-1.2277h-1.01829v1.22771h-.72858v.90514h.72858v1.58434a.86236.86236,0,0,0,.86236.86236h.57426a1.63994,1.63994,0,0,0,.723-.13971Z" transform="translate(0.52793 0.52793)"/><path class="cls-2" d="M57.40062,75.273a2.96075,2.96075,0,0,0-1.18013,2.2108,4.31849,4.31849,0,0,0,1.18013,2.9708" transform="translate(0.52793 0.52793)"/><path class="cls-2" d="M262.89142,75.273a2.96077,2.96077,0,0,1,1.18012,2.2108,4.31853,4.31853,0,0,1-1.18012,2.9708" transform="translate(0.52793 0.52793)"/><path d="M211.20038,71.48927a2.86655,2.86655,0,0,1-1.09436-.00979.40274.40274,0,0,1-.30342-.39185v-1.891h1.54972V67.90353H209.8026V66.14968h-1.12612l-.32858.33561v1.41825h-1.04083V69.1966h1.04083v2.26334a1.23194,1.23194,0,0,0,1.23194,1.23195h.82038a2.34264,2.34264,0,0,0,1.0328-.1996Z" transform="translate(0.52793 0.52793)"/><path d="M178.59252,70.78348a1.955,1.955,0,0,0,.73293.65411,2.1147,2.1147,0,0,0,.75657.20491c.35472.04538,1.07181.09626,1.07181-.38617,0-.55955-1.11748-.75723-1.99053-.776a1.13534,1.13534,0,0,1-1.16973-1.39914c.08934-.45028.52014-1.127,2.28547-1.04029a4.5799,4.5799,0,0,1,2.06567.47286v.59107l-.66286.42484a1.92527,1.92527,0,0,0-1.3634-.6061c-.13979-.009-.88773-.03932-.89843.26007-.00788.22067.20743.2764.66988.28372a8.667,8.667,0,0,1,1.79312.33405,1.45328,1.45328,0,0,1,.94157,1.60466c-.167.81271-1.51163,1.174-2.82138,1.18214a2.31244,2.31244,0,0,1-2.38-1.13485v-.58319Z" transform="translate(0.52793 0.52793)"/><path id="S" d="M259.22506,70.78348a1.955,1.955,0,0,0,.73293.65411,2.1147,2.1147,0,0,0,.75657.20491c.35472.04538,1.07181.09626,1.07181-.38617,0-.55955-1.11748-.75723-1.99052-.776a1.13535,1.13535,0,0,1-1.16974-1.39914c.08934-.45028.52014-1.127,2.28548-1.04029a4.57993,4.57993,0,0,1,2.06567.47286v.59107l-.66286.42484a1.92528,1.92528,0,0,0-1.36341-.6061c-.13979-.009-.88773-.03932-.89843.26007-.00788.22067.20743.2764.66988.28372a8.667,8.667,0,0,1,1.79312.33405,1.45328,1.45328,0,0,1,.94157,1.60466c-.16695.81271-1.51162,1.174-2.82138,1.18214a2.31244,2.31244,0,0,1-2.38-1.13485v-.58319Z" transform="translate(0.52793 0.52793)"/><path d="M132.49883,70.78348a1.95491,1.95491,0,0,0,.73293.65411,2.11465,2.11465,0,0,0,.75657.20491c.35472.04538,1.07181.09626,1.07181-.38617,0-.55955-1.11749-.75723-1.99053-.776a1.13534,1.13534,0,0,1-1.16973-1.39914c.08934-.45028.52014-1.127,2.28547-1.04029a4.8307,4.8307,0,0,1,1.8468.41213,2.26938,2.26938,0,0,1,.421.28051l-.57767.744a3.35537,3.35537,0,0,0-1.65076-.554c-.13979-.009-.88774-.03932-.89843.26007-.00788.22067.20743.2764.66988.28372a8.66724,8.66724,0,0,1,1.79312.33405,1.45329,1.45329,0,0,1,.94157,1.60466c-.16695.81271-1.51163,1.174-2.82138,1.18214a2.39707,2.39707,0,0,1-2.38-1.27291Z" transform="translate(0.52793 0.52793)"/><path d="M100.18608,70.78348a1.95491,1.95491,0,0,0,.73293.65411,2.11465,2.11465,0,0,0,.75657.20491c.35471.04538,1.07181.09626,1.07181-.38617,0-.55955-1.11749-.75723-1.99053-.776a1.13535,1.13535,0,0,1-1.16974-1.39914c.08935-.45028.52015-1.127,2.28548-1.04029a4.5799,4.5799,0,0,1,2.06567.47286v.59107l-.66286.42484a1.92527,1.92527,0,0,0-1.3634-.6061c-.13979-.009-.88774-.03932-.89843.26007-.00788.22067.20742.2764.66988.28372a8.66724,8.66724,0,0,1,1.79312.33405,1.45329,1.45329,0,0,1,.94157,1.60466c-.16695.81271-1.51163,1.174-2.82138,1.18214a2.31245,2.31245,0,0,1-2.38005-1.13485v-.58319Z" transform="translate(0.52793 0.52793)"/><path d="M84.58962,70.78348a1.955,1.955,0,0,0,.73293.65411,2.1147,2.1147,0,0,0,.75657.20491c.35472.04538,1.07181.09626,1.07181-.38617,0-.55955-1.11748-.75723-1.99052-.776a1.13535,1.13535,0,0,1-1.16974-1.39914c.08934-.45028.52014-1.127,2.28548-1.04029a4.58,4.58,0,0,1,2.06567.47286v.59107l-.66286.42484a1.9253,1.9253,0,0,0-1.36341-.6061c-.13979-.009-.88773-.03932-.89843.26007-.00788.22067.20743.2764.66988.28372a8.667,8.667,0,0,1,1.79312.33405,1.45328,1.45328,0,0,1,.94157,1.60466c-.16695.81271-1.51162,1.174-2.82138,1.18214a2.31244,2.31244,0,0,1-2.38-1.13485v-.58319Z" transform="translate(0.52793 0.52793)"/><path d="M202.37793,70.78348a1.955,1.955,0,0,0,.73293.65411,2.1147,2.1147,0,0,0,.75657.20491c.35472.04538,1.07181.09626,1.07181-.38617,0-.55955-1.11748-.75723-1.99053-.776a1.13534,1.13534,0,0,1-1.16973-1.39914c.08934-.45028.52014-1.127,2.28548-1.04029a4.57988,4.57988,0,0,1,2.06566.47286v.59107l-.66286.42484a1.92527,1.92527,0,0,0-1.3634-.6061c-.13979-.009-.88773-.03932-.89843.26007-.00788.22067.20743.2764.66988.28372a8.667,8.667,0,0,1,1.79312.33405,1.45328,1.45328,0,0,1,.94157,1.60466c-.167.81271-1.51162,1.174-2.82138,1.18214a2.31244,2.31244,0,0,1-2.38-1.13485v-.58319Z" transform="translate(0.52793 0.52793)"/><g id="J"><path d="M190.472,72.68849a2.48189,2.48189,0,0,1-2.42079-1.47447l-.0045-.00711,1.15969-.7367.0045.00714c.42973.67653.53186.83725,1.2611.83725a1.02567,1.02567,0,0,0,1.08322-.95326V67.202h-2.26232V65.82811h3.6362v4.53323A2.39747,2.39747,0,0,1,190.472,72.68849Z" transform="translate(0.52793 0.52793)"/></g><path id="u-2" data-name="u" d="M217.156,68h1.39136v2.85438c0,.3316.57015.52413.97776.52413.27475,0,1.29892-.27508,1.29892-.88783V68h1.31347v4.65978h-1.28492v-.86989a3.53735,3.53735,0,0,1-.8678.60354,2.98189,2.98189,0,0,1-1.11032.29847,1.65294,1.65294,0,0,1-1.71846-1.49633Z" transform="translate(0.52793 0.52793)"/><path id="u-3" data-name="u" d="M204.89082,76.78518h.974v1.99807c0,.23212.3991.36689.68443.36689.19233,0,.90924-.19256.90924-.62148V76.78518h.91943V80.047h-.89944V79.4381a2.47623,2.47623,0,0,1-.60746.42248,2.0872,2.0872,0,0,1-.77722.20893,1.15706,1.15706,0,0,1-1.20293-1.04743Z" transform="translate(0.52793 0.52793)"/><path id="u-4" data-name="u" d="M80.75225,76.89706h.974v1.99807c0,.23211.39911.36689.68443.36689.19233,0,.90925-.19256.90925-.62148V76.89706h.91943v3.26185h-.89945V79.55a2.47585,2.47585,0,0,1-.60746.42248,2.08739,2.08739,0,0,1-.77722.20893A1.15706,1.15706,0,0,1,80.75225,79.134Z" transform="translate(0.52793 0.52793)"/><path id="u-5" data-name="u" d="M111.59639,76.867h.974V78.8651c0,.23212.3991.36689.68442.36689.19233,0,.90925-.19256.90925-.62148V76.867h.91943v3.26185H114.184V79.52a2.47623,2.47623,0,0,1-.60746.42248,2.08739,2.08739,0,0,1-.77723.20893,1.15706,1.15706,0,0,1-1.20292-1.04743Z" transform="translate(0.52793 0.52793)"/><circle cx="113.08484" cy="76.50218" r="0.49263"/><circle cx="114.72376" cy="76.50218" r="0.49263"/><path id="u-6" data-name="u" d="M94.55522,76.89706h.97395v1.99807c0,.23211.3991.36689.68443.36689.19232,0,.90924-.19256.90924-.62148V76.89706h.91943v3.26185h-.89944V79.55a2.47623,2.47623,0,0,1-.60746.42248,2.08739,2.08739,0,0,1-.77723.20893A1.15706,1.15706,0,0,1,94.55522,79.134Z" transform="translate(0.52793 0.52793)"/><path id="u-7" data-name="u" d="M213.60432,80.06951h-.97394V78.07144c0-.23211-.39911-.36689-.68443-.36689-.19233,0-.90925.19256-.90925.62149v1.74347h-.91943V76.80767h.89945v.60892a2.47585,2.47585,0,0,1,.60746-.42248,2.08739,2.08739,0,0,1,.77722-.20893,1.15706,1.15706,0,0,1,1.20292,1.04743Z" transform="translate(0.52793 0.52793)"/><path id="u-8" data-name="u" d="M73.77175,80.06951h-.974V78.07144c0-.23211-.3991-.36689-.68443-.36689-.19232,0-.90924.19256-.90924.62149v1.74347H70.2847V76.80767h.89944v.60892a2.47623,2.47623,0,0,1,.60746-.42248,2.08739,2.08739,0,0,1,.77723-.20893,1.15706,1.15706,0,0,1,1.20292,1.04743Z" transform="translate(0.52793 0.52793)"/><path id="u-9" data-name="u" d="M92.88548,80.06951h-.974V78.07144c0-.23211-.3991-.36689-.68443-.36689-.19232,0-.90924.19256-.90924.62149v1.74347h-.91943V76.80767h.89944v.60892a2.47623,2.47623,0,0,1,.60746-.42248,2.08739,2.08739,0,0,1,.77723-.20893,1.15706,1.15706,0,0,1,1.20292,1.04743Z" transform="translate(0.52793 0.52793)"/><path id="n2" d="M198.20669,68.12451a2.16059,2.16059,0,0,0-1.48159.504v-.22649l-1.08991-.35442-.30915.45228v3.93121h1.39906V69.90139c0-.55337.77084-.74628,1.23791-.74628.28059,0,.87862-.02539.87862.40612v2.86989h1.32731V69.25828C200.16894,68.53049,199.39974,68.12451,198.20669,68.12451Z" transform="translate(0.52793 0.52793)"/><path id="n" d="M243.715,68.12451a2.16059,2.16059,0,0,0-1.48159.504v-.58091H240.8343v4.38349h1.39906V69.90139c0-.55337.77084-.74628,1.23791-.74628.28058,0,.87862-.02539.87862.40612v2.86989h1.32731V69.25828C245.6772,68.53049,244.908,68.12451,243.715,68.12451Z" transform="translate(0.52793 0.52793)"/><path d="M216.60961,68.4017a2.36,2.36,0,0,0-1.17518-.29129,2.11224,2.11224,0,0,0-1.47986.54085V68h-1.39906v4.6061h1.39906l-.00237-2.163v-.25252c0-.57552.79059-.76441,1.25765-.76441a3.189,3.189,0,0,1,.81428.07123Z" transform="translate(0.52793 0.52793)"/><path id="r" d="M114.30207,68.4017a2.36,2.36,0,0,0-1.17518-.29129,2.11224,2.11224,0,0,0-1.47986.54085V68H110.248v4.6061H111.647l-.00237-2.163v-.25252c0-.57552.79059-.76441,1.25765-.76441a3.189,3.189,0,0,1,.81428.07123Z" transform="translate(0.52793 0.52793)"/><path id="r-2" data-name="r" d="M154.40052,77.34276a1.65215,1.65215,0,0,0-.82263-.20389,1.47858,1.47858,0,0,0-1.0359.37859v-.4559h-.97935v3.22428h.97935l-.00166-1.51407V78.595c0-.40286.55341-.53508.88036-.53508a2.23213,2.23213,0,0,1,.57.04986Z" transform="translate(0.52793 0.52793)"/><path id="r-3" data-name="r" d="M102.51492,77.20829a1.65208,1.65208,0,0,0-.82262-.20389,1.4786,1.4786,0,0,0-1.03591.37859v-.4559H99.677v3.22427h.97934l-.00165-1.51406v-.17677c0-.40286.5534-.53508.88035-.53508a2.23213,2.23213,0,0,1,.57.04986Z" transform="translate(0.52793 0.52793)"/><path id="r-4" data-name="r" d="M119.11029,77.20829a1.65208,1.65208,0,0,0-.82262-.20389,1.4786,1.4786,0,0,0-1.03591.37859v-.4559h-.97934v3.22427h.97934l-.00165-1.51406v-.17677c0-.40286.5534-.53508.88035-.53508a2.23213,2.23213,0,0,1,.57.04986Z" transform="translate(0.52793 0.52793)"/><path class="cls-22" d="M176.7035,71.132a2.182,2.182,0,0,1-2.16975,1.01442c-.79863.00007-2.31976-.3296-2.31976-1.83561,0-1.17776,1.25673-1.74883,2.25747-1.8269a2.40367,2.40367,0,0,1,1.99587.86229,2.08073,2.08073,0,0,1,.2616.7591l-4.5.00009" transform="translate(0.52793 0.52793)"/><path class="cls-22" d="M238.854,71.132a2.182,2.182,0,0,1-2.16974,1.01442c-.79864.00007-2.31976-.3296-2.31976-1.83561,0-1.17776,1.25673-1.74883,2.25747-1.8269a2.40369,2.40369,0,0,1,1.99587.86229,2.08053,2.08053,0,0,1,.26159.7591l-4.5.00009" transform="translate(0.52793 0.52793)"/><path class="cls-22" d="M256.94807,71.132a2.182,2.182,0,0,1-2.16974,1.01442c-.79863.00007-2.31976-.3296-2.31976-1.83561,0-1.17776,1.25673-1.74883,2.25747-1.8269a2.40369,2.40369,0,0,1,1.99587.86229,2.08073,2.08073,0,0,1,.2616.7591l-4.5.00009" transform="translate(0.52793 0.52793)"/><path class="cls-22" d="M95.24813,71.132a2.182,2.182,0,0,1-2.16974,1.01442c-.79864.00007-2.31977-.3296-2.31977-1.83561,0-1.17776,1.25673-1.74883,2.25747-1.8269a2.40367,2.40367,0,0,1,1.99587.86229,2.08055,2.08055,0,0,1,.2616.7591l-4.5.00009" transform="translate(0.52793 0.52793)"/><path class="cls-23" d="M158.43835,79.17509a1.52742,1.52742,0,0,1-1.51882.7101c-.55905,0-1.62384-.23072-1.62384-1.28493,0-.82443.87972-1.22418,1.58023-1.27883a1.68257,1.68257,0,0,1,1.39711.6036,1.45636,1.45636,0,0,1,.18312.53137l-3.15.00006" transform="translate(0.52793 0.52793)"/><path class="cls-23" d="M149.87478,79.24735a1.52741,1.52741,0,0,1-1.51882.71009c-.559.00005-1.62383-.23072-1.62383-1.28493,0-.82443.87971-1.22418,1.58023-1.27883a1.68259,1.68259,0,0,1,1.39711.60361,1.45616,1.45616,0,0,1,.18311.53137l-3.15.00006" transform="translate(0.52793 0.52793)"/><path class="cls-23" d="M134.93446,79.19711a1.52742,1.52742,0,0,1-1.51882.7101c-.559,0-1.62384-.23072-1.62384-1.28493,0-.82443.87971-1.22418,1.58023-1.27883a1.68257,1.68257,0,0,1,1.39711.6036,1.45649,1.45649,0,0,1,.18312.53137l-3.15.00007" transform="translate(0.52793 0.52793)"/><polyline class="cls-1" points="125.001 80.725 125.001 76.038 125.849 76.038 127.29 78.775 127.402 78.775 129.658 76.038 129.993 76.038 129.993 80.725"/><path class="cls-1" d="M63.697,79.23449a2.18379,2.18379,0,0,1-1.50644.58848,1.968,1.968,0,1,1,0-3.92569,2.18531,2.18531,0,0,1,1.492.5749" transform="translate(0.52793 0.52793)"/><polyline class="cls-1" points="62.481 78.224 64.134 78.224 64.134 80.597"/><path class="cls-23" d="M68.679,79.11287a1.52737,1.52737,0,0,1-1.51881.7101c-.559.00005-1.62384-.23072-1.62384-1.28493,0-.82443.87971-1.22418,1.58023-1.27883a1.68258,1.68258,0,0,1,1.39711.60361,1.45638,1.45638,0,0,1,.18312.53136l-3.15.00007" transform="translate(0.52793 0.52793)"/><path class="cls-22" d="M69.82881,71.132a2.182,2.182,0,0,1-2.16974,1.01442c-.79864.00007-2.31977-.3296-2.31977-1.83561,0-1.17776,1.25673-1.74883,2.25747-1.8269a2.40367,2.40367,0,0,1,1.99587.86229,2.08073,2.08073,0,0,1,.2616.7591l-4.5.00009" transform="translate(0.52793 0.52793)"/><path d="M111.48537,76.38122a1.73727,1.73727,0,0,0-1.69454-1.03215,1.67824,1.67824,0,0,0-1.72,1.629v3.17328l.96173-.00081V77.97929h1.58363v-.96173h-1.58363v-.03948a.71793.71793,0,0,1,.75824-.66727c.51047,0,.582.11249.88277.58605l.00316.005.81177-.51569Z" transform="translate(0.52793 0.52793)"/><rect id="r-5" data-name="r" x="160.88708" y="77.58949" width="0.97934" height="3.22427"/><circle cx="161.37675" cy="76.40166" r="0.49263"/><path class="cls-3" d="M139.53375,77.51925a.91949.91949,0,0,0,.25855-.36688,1.14354,1.14354,0,0,0-.04273-.89465l.00116-.00073-.00317-.005a1.75684,1.75684,0,0,0-1.69452-1.0321,1.67818,1.67818,0,0,0-1.72,1.629v3.17327l.96167-.00067v-3.1726a.72326.72326,0,0,1,.7583-.6673c.51093-.00928.87708.10394.88013.57721.00177.27386-.34058.36053-.61219.37671l-.40918.50366a1.24694,1.24694,0,0,0,.93659.1698.772.772,0,0,1,.40893.53418c.16144.61865-.14819,1.34674-.63464,1.28265-.50513-.03015-.421-.45221-.43884-.93274a.26129.26129,0,0,0-.43842.04132c-.0578.11957-.02319.23151-.0321.45179-.00037,1.427,1.79187,1.25628,2.27789.734a1.4738,1.4738,0,0,0,.38092-1.07617A1.33816,1.33816,0,0,0,139.53375,77.51925Z" transform="translate(0.52793 0.52793)"/><g id="Small_Digits" data-name="Small Digits"><polyline class="cls-1" points="179.793 80.73 179.793 76.197 179.668 76.197 178.25 77.496"/><rect class="cls-24" x="197.57365" y="76.27576" width="3.28521" height="3.88033" rx="1.6426"/><rect class="cls-24" x="232.0324" y="76.27576" width="3.28521" height="3.88033" rx="1.6426"/><path class="cls-1" d="M181.21564,79.13869a1.45179,1.45179,0,0,0,1.499.84393h0a1.36456,1.36456,0,0,0,1.53272-1.37656h0a1.45721,1.45721,0,0,0-1.52831-1.48228h0c-.60128,0-1.33394.41142-1.33394.74012V75.66944h2.55861" transform="translate(0.52793 0.52793)"/><polyline class="cls-1" points="225.343 80.73 225.343 76.197 225.218 76.197 223.8 77.496"/><path class="cls-1" d="M226.76525,79.13869a1.45179,1.45179,0,0,0,1.499.84393h0a1.36456,1.36456,0,0,0,1.53272-1.37656h0a1.45721,1.45721,0,0,0-1.52831-1.48228h0c-.60128,0-1.33394.41142-1.33394.74012V75.66944h2.55861" transform="translate(0.52793 0.52793)"/><path class="cls-24" d="M194.86105,76.19631a1.63284,1.63284,0,0,0-1.27406-.58749h0a1.6216,1.6216,0,0,0-1.59614,1.37061,3.08414,3.08414,0,0,0,.2352,2.08834" transform="translate(0.52793 0.52793)"/><ellipse class="cls-24" cx="194.13503" cy="78.92411" rx="1.57063" ry="1.40896"/><polyline class="cls-25" points="243.117 75.639 243.117 75.735 241.308 79.993 240.819 79.993 239.22 75.799 239.22 75.694"/></g><path class="cls-26" d="M261.66378,76.85554l-.184.26118a1.80072,1.80072,0,0,1-2.7794.24511l-.07318-.07391L258.554,77.214a1.80071,1.80071,0,0,0-2.77939.24511l-.18406.26119" transform="translate(0.52793 0.52793)"/><path class="cls-3" d="M187.00822,79.25223a.78625.78625,0,0,0-.58476-.30463.62885.62885,0,0,0-.62884.62884.62014.62014,0,0,0,.51452.60572c.06775.374.03669.858.27027.858.30652,0,.73681-.8114.73681-1.15869A1.18644,1.18644,0,0,0,187.00822,79.25223Z" transform="translate(0.52793 0.52793)"/><polyline class="cls-27" points="56.43 66.814 56.43 66.946 58.183 72.334 58.689 72.334 60.25 67.43 60.626 67.43 61.916 72.334 62.473 72.334 64.135 67.362 64.135 66.982"/></g><g id="_3v_Numbers" data-name="3v Numbers"><g id="_3v_Bottom_Big" data-name="3v Bottom Big"><polyline class="cls-11" points="109.478 65.625 109.478 56.273 109.194 56.273 106.573 58.007"/><rect class="cls-12" x="15.26918" y="56.53326" width="4.25713" height="8.83138" rx="2.12856"/><rect class="cls-12" x="113.65655" y="56.53326" width="4.25713" height="8.83138" rx="2.12856"/><rect class="cls-12" x="207.63508" y="56.53326" width="4.25713" height="8.83138" rx="2.12856"/><rect class="cls-12" x="303.33273" y="56.53326" width="4.25713" height="8.83138" rx="2.12856"/><path class="cls-11" d="M200.42191,58.4173a3.55852,3.55852,0,0,1-.05679-.59511,1.87176,1.87176,0,0,1,1.96089-1.6075,1.66744,1.66744,0,0,1,1.858,1.70108,2.82978,2.82978,0,0,1-.7271,1.8276c-.66584.76237-1.82482,2.06031-2.42125,2.75735a3.1136,3.1136,0,0,0-.76251,2.12663h4.51889" transform="translate(0.52793 0.52793)"/><path class="cls-11" d="M294.45767,62.58273a2.52418,2.52418,0,1,0,2.51406-2.70017v-.37691h.06942a1.752,1.752,0,1,0-2.06886-1.72305" transform="translate(0.52793 0.52793)"/></g><g id="_3v_Top_Small" data-name="3v Top Small"><polyline class="cls-28" points="85.733 26.659 85.733 21.025 85.129 21.025 84.144 21.927"/><rect class="cls-29" x="15.89997" y="21.30795" width="3.12322" height="5.06815" rx="1.44133"/><path class="cls-25" d="M190.6024,25.88706h-2.95781a1.96416,1.96416,0,0,1,.919-1.87969s.741-.46735,1.06389-.66713a1.47034,1.47034,0,0,0,.722-1.31727,1.33053,1.33053,0,0,0-1.37439-1.28183,1.40506,1.40506,0,0,0-1.33055,1.41086,1.12509,1.12509,0,0,0,.02527.1996" transform="translate(0.52793 0.52793)"/><path class="cls-25" d="M299.46008,24.72258a2.13916,2.13916,0,0,0,1.89969,1.04931,1.19633,1.19633,0,0,0,1.32253-1.18083c0-.71089-.52347-1.20283-1.472-1.20283v-.198h.03854a1.17056,1.17056,0,0,0,1.17507-1.15211c0-.58373-.35877-1.13451-1.31831-1.18019a1.2391,1.2391,0,0,0-1.3103,1.03786" transform="translate(0.52793 0.52793)"/></g><g id="_3v_Bottom_Small" data-name="3v Bottom Small"><polyline class="cls-17" points="156.411 64.096 156.411 56.619 156.194 56.619 154.196 58.006"/><path class="cls-17" d="M63.14328,62.04228a1.49524,1.49524,0,0,0,1.62362,1.30515h0a1.49524,1.49524,0,0,0,1.62362-1.30515V59.70857a1.49523,1.49523,0,0,0-1.62362-1.30515h0a1.49523,1.49523,0,0,0-1.62362,1.30515V56.31172h3.62149" transform="translate(0.52793 0.52793)"/><path class="cls-17" d="M158.34673,62.04228a1.49525,1.49525,0,0,0,1.62363,1.30515h0a1.49524,1.49524,0,0,0,1.62363-1.30515V59.70857a1.49523,1.49523,0,0,0-1.62363-1.30515h0a1.49524,1.49524,0,0,0-1.62363,1.30515V56.31172h3.6215" transform="translate(0.52793 0.52793)"/><path class="cls-17" d="M253.62068,62.04228a1.49524,1.49524,0,0,0,1.62362,1.30515h0a1.49524,1.49524,0,0,0,1.62362-1.30515V59.70857a1.49523,1.49523,0,0,0-1.62362-1.30515h0a1.49523,1.49523,0,0,0-1.62362,1.30515V56.31172h3.62149" transform="translate(0.52793 0.52793)"/><path class="cls-17" d="M248.74391,58.22757a2.97728,2.97728,0,0,1-.04332-.47581,1.4489,1.4489,0,0,1,1.49573-1.28522,1.29722,1.29722,0,0,1,1.41728,1.36,2.324,2.324,0,0,1-.55462,1.4612c-.50789.60953-1.39194,1.64726-1.84688,2.20455a2.56043,2.56043,0,0,0-.58163,1.70028h3.44692" transform="translate(0.52793 0.52793)"/></g><g id="_3v_Top_Big" data-name="3v Top Big"><polyline class="cls-30" points="133.317 26.513 133.317 20.158 133.132 20.158 131.433 21.337"/><rect class="cls-31" x="32.18437" y="20.37223" width="2.76017" height="6.00172" rx="1.38008"/><path class="cls-30" d="M37.88966,24.726a1.271,1.271,0,0,0,1.38009,1.10938h0A1.271,1.271,0,0,0,40.64983,24.726V22.74231a1.271,1.271,0,0,0-1.38008-1.10938h0a1.271,1.271,0,0,0-1.38009,1.10938V19.855h3.07827" transform="translate(0.52793 0.52793)"/><path class="cls-30" d="M137.45918,24.726a1.271,1.271,0,0,0,1.38008,1.10938h0a1.271,1.271,0,0,0,1.38009-1.10938V22.74231a1.271,1.271,0,0,0-1.38009-1.10938h0a1.271,1.271,0,0,0-1.38008,1.10938V19.855h3.07827" transform="translate(0.52793 0.52793)"/><path class="cls-30" d="M247.11949,24.726a1.271,1.271,0,0,0,1.38008,1.10938h0a1.271,1.271,0,0,0,1.38008-1.10938V22.74231a1.271,1.271,0,0,0-1.38008-1.10938h0a1.271,1.271,0,0,0-1.38008,1.10938V19.855h3.07827" transform="translate(0.52793 0.52793)"/><path class="cls-30" d="M240.79487,21.48346a2.53007,2.53007,0,0,1-.03683-.40444,1.23157,1.23157,0,0,1,1.27137-1.09244,1.10264,1.10264,0,0,1,1.20469,1.156,1.97537,1.97537,0,0,1-.47142,1.242c-.4317.5181-1.18315,1.40017-1.56985,1.87387a2.17635,2.17635,0,0,0-.49438,1.44524h2.92988" transform="translate(0.52793 0.52793)"/><path class="cls-3" d="M134.94074,25.19262h.772a.2419.2419,0,0,1,.18571.3969l-1.40472,1.683a.26312.26312,0,0,1-.45478-.24167l.42847-1.48232A.49273.49273,0,0,1,134.94074,25.19262Z" transform="translate(0.52793 0.52793)"/><path class="cls-3" d="M244.94747,25.19262h.772a.2419.2419,0,0,1,.18571.3969l-1.40472,1.683a.26312.26312,0,0,1-.45478-.24167l.42846-1.48232A.49275.49275,0,0,1,244.94747,25.19262Z" transform="translate(0.52793 0.52793)"/><path class="cls-3" d="M35.70966,25.19262h.772a.2419.2419,0,0,1,.18571.3969l-1.40472,1.683a.26312.26312,0,0,1-.45478-.24167l.42847-1.48232A.49273.49273,0,0,1,35.70966,25.19262Z" transform="translate(0.52793 0.52793)"/></g></g><g id="_3v_Title" data-name="3v Title"><polygon id="k-3" data-name="k" class="cls-3" points="157.39 14.709 158.749 13.716 158.749 13.09 157.414 13.09 155.536 14.463 155.536 11.298 155.086 11.073 154.547 11.073 154.131 11.461 154.131 17.311 154.423 17.615 155.536 17.615 155.536 16.065 156.212 15.571 157.971 17.615 158.633 17.615 159.355 16.994 157.39 14.709"/><polygon id="k-4" data-name="k" class="cls-3" points="118.52 15.064 119.879 14.071 119.879 13.444 118.545 13.444 116.666 14.817 116.666 11.653 116.216 11.428 115.677 11.428 115.261 11.815 115.261 17.665 115.553 17.97 116.666 17.97 116.666 16.419 117.342 15.925 119.101 17.97 119.763 17.97 120.486 17.348 118.52 15.064"/><path id="a-3" data-name="a" class="cls-3" d="M165.37774,13.363c-.17351-.25188-.70952-.70219-2.0747-.85948a5.93812,5.93812,0,0,0-1.88082.13029,1.355,1.355,0,0,0-.63416.35632v.29358l.53753.47179.23184-.17179a1.33349,1.33349,0,0,1,.549-.108c.2848-.02612.608-.01786.84545-.01519a1.89129,1.89129,0,0,1,.76139.10007.19174.19174,0,0,1-.11793.362,4.07012,4.07012,0,0,0-1.77034.145c-.61546.14856-1.6859.82816-1.6859,1.72906,0,2.06985,3.44933,1.48463,3.78552.95736l.40765.33353h1.12659V13.62337A.45824.45824,0,0,0,165.37774,13.363Zm-2.32984,2.63785c-.68036.11638-1.26915-.007-1.31509-.27556s.26464-.64707.98533-.73146c.68208-.07987,1.46058-.17069,1.46058.28448C164.17872,15.70286,163.72827,15.8845,163.0479,16.00088Z" transform="translate(0.52793 0.52793)"/><path id="a-4" data-name="a" class="cls-3" d="M175.58,13.363c-.17351-.25188-.70952-.70219-2.0747-.85948a5.93815,5.93815,0,0,0-1.88082.13029,1.35507,1.35507,0,0,0-.63416.35632v.29358l.53753.47179.23184-.17179a1.33353,1.33353,0,0,1,.549-.108c.28481-.02612.608-.01786.84546-.01519a1.89125,1.89125,0,0,1,.76138.10007.19174.19174,0,0,1-.11793.362,4.07012,4.07012,0,0,0-1.77034.145c-.61546.14856-1.6859.82816-1.6859,1.72906,0,2.06985,3.44934,1.48463,3.78553.95736l.40764.33353h1.12659V13.62337A.45817.45817,0,0,0,175.58,13.363Zm-2.32984,2.63785c-.68036.11638-1.26915-.007-1.31509-.27556s.26465-.64707.98533-.73146c.68208-.07987,1.46058-.17069,1.46058.28448C174.381,15.70286,173.93053,15.8845,173.25016,16.00088Z" transform="translate(0.52793 0.52793)"/><rect id="l-5" data-name="l" class="cls-3" x="168.17202" y="11.08541" width="1.39143" height="6.54221"/><rect id="l-6" data-name="l" class="cls-3" x="209.60634" y="11.08541" width="1.39143" height="6.54221"/><path id="o-5" data-name="o" class="cls-3" d="M93.4294,12.67385c-1.65357,0-2.99405,1.0246-2.99405,2.2885s1.34048,2.2885,2.99405,2.2885,2.994-1.02459,2.994-2.2885S95.083,12.67385,93.4294,12.67385Zm0,3.50623a1.43721,1.43721,0,0,1-1.58349-1.21773,1.63841,1.63841,0,0,1,3.167,0A1.4372,1.4372,0,0,1,93.4294,16.18008Z" transform="translate(0.52793 0.52793)"/><path id="t-3" data-name="t" class="cls-3" d="M123.5142,16.16369a2.6716,2.6716,0,0,1-1.00461-.00884.36514.36514,0,0,1-.27853-.35423V14.09114h1.42262V12.92222h-1.42262V11.33675h-1.33539v1.58547h-.95547v1.16892h.95547v2.046a1.12239,1.12239,0,0,0,1.1309,1.11367h.7531a2.1781,2.1781,0,0,0,.94809-.18043Z" transform="translate(0.52793 0.52793)"/><path id="u-10" data-name="u" class="cls-3" d="M124.85315,12.6164h1.39135v2.85438c0,.3316.57015.52413.97776.52413.27475,0,1.29892-.27508,1.29892-.88783V12.6164h1.31347v4.65978h-1.28492v-.86989a3.53755,3.53755,0,0,1-.8678.60354,2.98194,2.98194,0,0,1-1.11032.29847,1.65294,1.65294,0,0,1-1.71846-1.49633Z" transform="translate(0.52793 0.52793)"/><path class="cls-3" d="M136.16941,13.061a2.3601,2.3601,0,0,0-1.17518-.29129,2.11228,2.11228,0,0,0-1.47986.54085V12.6593h-1.39906v4.6061h1.39906l-.00237-2.163v-.25252c0-.57552.79059-.76441,1.25765-.76441a3.1895,3.1895,0,0,1,.81428.07123Z" transform="translate(0.52793 0.52793)"/><path class="cls-3" d="M106.04534,13.061a2.36008,2.36008,0,0,0-1.17517-.29129,2.11231,2.11231,0,0,0-1.47987.54085V12.6593h-1.39906v4.6061h1.39906l-.00236-2.163v-.25252c0-.57552.79058-.76441,1.25765-.76441a3.18943,3.18943,0,0,1,.81427.07123Z" transform="translate(0.52793 0.52793)"/><path class="cls-3" d="M101.32459,13.061a2.3601,2.3601,0,0,0-1.17518-.29129,2.11228,2.11228,0,0,0-1.47986.54085V12.6593H97.27049v4.6061h1.39906l-.00237-2.163v-.25252c0-.57552.79059-.76441,1.25765-.76441a3.1895,3.1895,0,0,1,.81428.07123Z" transform="translate(0.52793 0.52793)"/><path class="cls-18" d="M112.48,15.78185a2.182,2.182,0,0,1-2.16974,1.01442c-.79864.00007-2.31976-.3296-2.31976-1.83561,0-1.17776,1.25673-1.74883,2.25747-1.8269a2.40369,2.40369,0,0,1,1.99587.86229,2.08073,2.08073,0,0,1,.2616.7591l-4.5.00009" transform="translate(0.52793 0.52793)"/><path class="cls-3" d="M150.48031,10.81114a3.79167,3.79167,0,0,1,1.30628.836l-.8186,1.09727a3.36446,3.36446,0,0,0-1.35853-.78377,2.01549,2.01549,0,0,0-1.39336,0,.672.672,0,0,0-.418.38318.57762.57762,0,0,0,.13934.50509c.261.29759.933.1141,1.83.27408a2.805,2.805,0,0,1,1.79271.80578,1.80469,1.80469,0,0,1,.45284,1.16693,1.5242,1.5242,0,0,1-.60018,1.23629c-1.64218,1.29216-3.7988.5866-4.43334.36608a1.79826,1.79826,0,0,1-.78324-.52238,2.03875,2.03875,0,0,1-.5051-1.21919l1.621-.06606a1.10706,1.10706,0,0,0,.20723.43169,1.66632,1.66632,0,0,0,1.30628.627,1.32274,1.32274,0,0,0,1.07985-.45284.83535.83535,0,0,0,.15675-.80119c-.158-.2826-.57461-.21836-1.32369-.3135-.843-.10708-1.82911-.23233-2.28163-.88827a1.54863,1.54863,0,0,1-.22642-1.07986,2.2483,2.2483,0,0,1,1.34111-1.48044A3.71655,3.71655,0,0,1,150.48031,10.81114Z" transform="translate(0.52793 0.52793)"/><line class="cls-19" x1="84.49582" y1="11.58132" x2="84.49582" y2="17.61549"/><line class="cls-19" x1="90.13361" y1="11.02743" x2="84.49582" y2="15.84382"/><line class="cls-20" x1="86.89594" y1="13.79339" x2="89.98112" y2="18.25815"/><path class="cls-3" d="M215.28681,15.90513a2.867,2.867,0,0,1-1.09436-.00979.40275.40275,0,0,1-.30341-.39185v-1.891h1.54972V12.31939H213.889V10.56553h-1.12613l-.32857.33561v1.41825H211.3935v1.29307h1.04084V15.8758a1.23194,1.23194,0,0,0,1.23194,1.23194h.82038a2.34279,2.34279,0,0,0,1.0328-.19959Z" transform="translate(0.52793 0.52793)"/><path id="o-6" data-name="o" class="cls-3" d="M204.68617,12.41562c-1.65357,0-2.99405,1.0246-2.99405,2.2885s1.34048,2.2885,2.99405,2.2885,2.994-1.0246,2.994-2.2885S206.33973,12.41562,204.68617,12.41562Zm0,3.50623a1.43721,1.43721,0,0,1-1.58349-1.21773,1.63841,1.63841,0,0,1,3.167,0A1.4372,1.4372,0,0,1,204.68617,15.92185Z" transform="translate(0.52793 0.52793)"/><polygon class="cls-3" points="200.817 11.46 198.59 15.848 197.076 11.46 195.452 11.46 197.834 18.366 199.034 18.366 202.539 11.46 200.817 11.46"/><path class="cls-3" d="M190.6342,13.80387a1.63188,1.63188,0,0,0,.73693-1.2934c0-1.03532-1.19308-1.87461-2.66482-1.87461a2.67931,2.67931,0,0,0-2.57379,1.38846l.78381.84341.41447-.02862s.15308-.31574.18265-.377a1.22516,1.22516,0,0,1,1.19916-.7532c.63353,0,1.08024.32542,1.08024.80159a.97322.97322,0,0,1-1.08654.8622c-.33972,0-.92145-.017-.92145-.017l.01316,1.18935s.70238-.04624,1.13412-.04624a1.42019,1.42019,0,0,1,.8469.27278,1.018,1.018,0,0,1,.14235.5173c0,.63023-.58294,1.00248-1.30613,1.00248a1.36149,1.36149,0,0,1-1.31279-1.00248c-.01739-.03872-.04244-.11646-.04244-.11646l-1.44712.25708a2.59954,2.59954,0,0,0,2.799,2.00391c1.54954,0,2.80569-.96014,2.80569-2.14453A1.91041,1.91041,0,0,0,190.6342,13.80387Z" transform="translate(0.52793 0.52793)"/><path class="cls-21" d="M227.68672,13.17783l-.2574.38948a2.424,2.424,0,0,1-3.887.36552L223.44,13.8226l-.10235-.11022a2.424,2.424,0,0,0-3.887.36551l-.25739.38948" transform="translate(0.52793 0.52793)"/><rect class="cls-3" x="138.34343" y="14.68124" width="4.90949" height="0.91612"/></g></g></svg>