<svg xmlns="http://www.w3.org/2000/svg" width="858.81714" height="301.16217" viewBox="0 0 858.81714 301.16217"><title>Asset 2</title><g id="Layer_2" data-name="Layer 2"><g id="Layer_1-2" data-name="Layer 1"><path d="M111.88538,0H0V296.61353H51.30267V205.19531h60.58271A38.29358,38.29358,0,0,0,150.06671,167.014V38.18134A38.2936,38.2936,0,0,0,111.88538,0ZM101.87781,146.16016A10.84589,10.84589,0,0,1,91.03192,157.0061H47.77283V51.33557H91.03192a10.84589,10.84589,0,0,1,10.84589,10.84589Z"/><path d="M297.70837.60046V227.9834a20.4998,20.4998,0,0,1-20.43969,20.4397h-19.6416a20.50077,20.50077,0,0,1-20.44068-20.44068V.60046H192.38849V243.72357a53.04463,53.04463,0,0,0,52.88916,52.88916h46.955a53.04463,53.04463,0,0,0,52.88916-52.88916V.60046Z"/><path d="M603.44238,90.22772H387.31024v206.385h48.18915V143.41724h57.1911V296.61273h47.50409V143.41724H575.2113a18.80615,18.80615,0,0,1,18.80616,18.80615V296.61273h48.18963V128.99249A38.76473,38.76473,0,0,0,603.44238,90.22772Z"/><circle cx="681.68556" cy="281.31965" r="19.84252"/><polygon points="814.274 0.6 753.292 46.23 753.292 111 814.274 60.831 814.274 296.613 858.817 296.613 858.817 0.6 814.274 0.6"/></g></g></svg>