<svg xmlns="http://www.w3.org/2000/svg" width="188.08661" height="171.07874" viewBox="0 0 188.08661 171.07874"><defs><style>.cls-1{fill:#fff;stroke:#666766;}.cls-1,.cls-11,.cls-14,.cls-4,.cls-5,.cls-8{stroke-miterlimit:10;}.cls-11,.cls-2,.cls-3,.cls-4,.cls-5,.cls-8{fill:none;}.cls-11,.cls-14,.cls-2,.cls-5,.cls-8{stroke:#231f20;}.cls-2,.cls-3{stroke-linejoin:bevel;}.cls-2,.cls-3,.cls-4,.cls-5{stroke-width:1.75px;}.cls-3,.cls-4{stroke:#ed2024;}.cls-10,.cls-12,.cls-13,.cls-14,.cls-6,.cls-9{fill:#231f20;}.cls-7{fill:#ed2024;}.cls-10,.cls-9{font-size:15px;}.cls-10,.cls-12,.cls-13,.cls-9{font-family:Helvetica-Bold, Helvetica;font-weight:700;}.cls-9{letter-spacing:-0.03662em;}.cls-11{stroke-width:1.4px;}.cls-12{font-size:12px;letter-spacing:0.02002em;}.cls-13{font-size:14px;letter-spacing:-0.0366em;}.cls-14{font-size:6.5px;stroke-width:0.25px;font-family:Geneva;letter-spacing:-0.09097em;}.cls-15{letter-spacing:-0.05102em;}.cls-16{letter-spacing:-0.03096em;}.cls-17{letter-spacing:-0.17104em;}.cls-18{letter-spacing:-0.13101em;}.cls-19{letter-spacing:-0.15098em;}.cls-20{letter-spacing:-0.09105em;}</style></defs><title>Top Voltage Dial</title><g id="Layer_2" data-name="Layer 2"><g id="Layer_1-2" data-name="Layer 1"><g id="Top_Voltage_Dial" data-name="Top Voltage Dial"><path class="cls-1" d="M147.833.5H40.25354A93.54334,93.54334,0,1,0,147.833.5ZM30.91669,142.86261a3.46219,3.46219,0,1,1,3.46216-3.46216A3.4622,3.4622,0,0,1,30.91669,142.86261ZM31.804,17.2713a3.46219,3.46219,0,1,1,3.46215-3.46222A3.46225,3.46225,0,0,1,31.804,17.2713Zm62.23931,88.1106a28.34644,28.34644,0,1,1,28.34644-28.34644A28.3464,28.3464,0,0,1,94.04327,105.3819Zm62.06629-93.30707a3.46219,3.46219,0,1,1-3.46222,3.46216A3.46214,3.46214,0,0,1,156.10956,12.07483Zm.35815,131.20508a3.46216,3.46216,0,1,1,3.46222-3.46216A3.46214,3.46214,0,0,1,156.46771,143.27991Z"/><rect class="cls-2" x="80.04354" y="138.13004" width="4.37218" height="9.07006" rx="2.18609" transform="translate(26.02282 -12.11164) rotate(10.00001)"/><rect class="cls-3" x="158.73329" y="97.12169" width="4.37218" height="9.07006" rx="2.18609" transform="translate(44.4733 -48.90704) rotate(20.00001)"/><polyline class="cls-4" points="156.789 59.153 153.505 50.129 153.23 50.229 151.31 52.822"/><path class="cls-4" d="M159.00877,56.26021a1.98888,1.98888,0,0,0,2.62767.82774h0a1.98887,1.98887,0,0,0,1.48084-2.32312l-1.0253-2.817a1.98888,1.98888,0,0,0-2.62767-.82774h0a1.98887,1.98887,0,0,0-1.48084,2.32312l-1.49239-4.1003,4.582-1.66771"/><polyline class="cls-5" points="29.116 106.758 25.831 97.733 25.556 97.833 23.637 100.427"/><path class="cls-5" d="M32.04045,103.54271a1.98888,1.98888,0,0,0,2.62766.82774h0a1.98889,1.98889,0,0,0,1.48084-2.32312l-1.02531-2.817a1.98887,1.98887,0,0,0-2.62766-.82774h0a1.98889,1.98889,0,0,0-1.48085,2.32312l-1.49238-4.1003,4.582-1.66771"/><rect class="cls-3" x="151.33927" y="122.79093" width="4.37218" height="9.07006" rx="2.18609" transform="translate(117.76161 -68.89558) rotate(39.99999)"/><polyline class="cls-4" points="141.085 123.156 147.259 115.799 147.035 115.611 143.829 115.246"/><path class="cls-4" d="M144.53857,123.49556a1.98887,1.98887,0,0,0,.597,2.68949h0a1.98888,1.98888,0,0,0,2.7523.12088l1.92694-2.29644a1.98887,1.98887,0,0,0-.597-2.68949h0a1.98887,1.98887,0,0,0-2.7523-.12089l2.80476-3.34259,3.73529,3.13427"/><rect class="cls-2" x="27.33667" y="73.09007" width="4.37218" height="9.07006" rx="2.18609"/><polyline class="cls-5" points="16.36 82.427 16.36 72.823 16.067 72.823 13.376 74.604"/><path class="cls-5" d="M19.75733,80.46745A1.98888,1.98888,0,0,0,21.94342,82.144h0a1.98888,1.98888,0,0,0,2.18609-1.67653V77.46966a1.98888,1.98888,0,0,0-2.18609-1.67654h0a1.98888,1.98888,0,0,0-2.18609,1.67653V73.10621h4.87606"/><rect class="cls-2" x="42.54955" y="114.56188" width="4.37218" height="9.07006" rx="2.18609" transform="translate(-66.08786 56.61889) rotate(-39.99999)"/><polyline class="cls-5" points="43.998 125.984 37.825 118.627 37.601 118.815 36.684 121.909"/><path class="cls-3" d="M141.90273,32.53923a2.16862,2.16862,0,0,0-2.1784.26362h0c-.95475.80113-.90465,2.44727.11135,3.65809l2.1149,2.52031"/><ellipse class="cls-3" cx="143.68649" cy="37.52465" rx="2.26607" ry="2.87384" transform="translate(9.49585 101.13895) rotate(-39.99998)"/><path class="cls-2" d="M47.03838,34.5367a2.16863,2.16863,0,0,0-.63789-2.09952h0c-.95476-.80113-2.56718-.46593-3.58318.74488l-2.11478,2.52042"/><ellipse class="cls-2" cx="42.43845" cy="37.15908" rx="2.87384" ry="2.26607" transform="translate(-13.30597 45.78338) rotate(-49.99996)"/><rect class="cls-3" x="127.19984" y="134.77444" width="4.37218" height="9.07006" rx="2.18609" transform="translate(185.33853 -42.39676) rotate(60.00001)"/><rect class="cls-3" x="130.90352" y="141.1894" width="4.37218" height="9.07006" rx="2.18609" transform="translate(192.74589 -42.39676) rotate(60.00001)"/><path class="cls-3" d="M129.55453,132.96033a2.16861,2.16861,0,0,0,.11867-2.19108h0c-.62316-1.07937-2.253-1.31587-3.62184-.52557l-2.84928,1.64513"/><ellipse class="cls-3" cx="124.33511" cy="133.85128" rx="2.87384" ry="2.26607" transform="translate(-50.26785 80.10007) rotate(-29.99995)"/><path class="cls-3" d="M157.016,96.98154a2.16861,2.16861,0,0,0-1.3175-1.75474h0c-1.17118-.42627-2.57172.44019-3.11232,1.92548l-1.12521,3.09171"/><ellipse class="cls-3" cx="153.59034" cy="101.01903" rx="2.87384" ry="2.26607" transform="translate(6.13239 210.79603) rotate(-69.99994)"/><rect class="cls-3" x="162.75719" y="73.30802" width="4.37218" height="9.07006" rx="2.18609"/><path class="cls-4" d="M155.20125,79.93065a2.5924,2.5924,0,1,0,2.582-2.77314v-.122h.0713a1.7993,1.7993,0,1,0-2.12478-1.76962"/><rect class="cls-2" x="31.08593" y="50.73698" width="4.37218" height="9.07006" rx="2.18609" transform="translate(20.91067 -8.04639) rotate(19.99998)"/><path class="cls-5" d="M23.40351,53.90174a2.5924,2.5924,0,1,0,3.37476-1.7228l.04173-.11467.067.02438a1.7993,1.7993,0,1,0,1.21049-3.32579,1.97174,1.97174,0,0,0-2.60188.93618"/><circle class="cls-6" cx="84.21688" cy="132.76354" r="1.68863"/><circle class="cls-6" cx="50.6945" cy="113.40938" r="1.68863"/><circle class="cls-6" cx="40.86814" cy="96.38963" r="1.68863"/><circle class="cls-6" cx="37.46238" cy="77.03548" r="1.68863"/><circle class="cls-6" cx="40.86814" cy="57.68132" r="1.68863"/><circle class="cls-6" cx="50.69451" cy="40.66156" r="1.68863"/><circle class="cls-7" cx="122.33712" cy="126.04192" r="1.47201"/><circle class="cls-7" cx="137.39198" cy="113.40939" r="1.47201"/><circle class="cls-7" cx="147.21834" cy="96.38964" r="1.47201"/><circle class="cls-7" cx="150.6241" cy="77.03548" r="1.47201"/><circle class="cls-7" cx="147.21835" cy="57.68133" r="1.47201"/><circle class="cls-7" cx="137.39199" cy="40.66157" r="1.47201"/><line class="cls-8" x1="94.04324" y1="125.62281" x2="94.04324" y2="170.57875"/><line class="cls-8" x1="77.42142" y1="122.7036" x2="62.04133" y2="164.96012"/><path class="cls-8" d="M26.09073,123.74824a82.91575,82.91575,0,0,0,14.952,16.45069l.0001-.0001,21.7698-25.9442"/><path class="cls-8" d="M46.50916,87.13912,13.38084,94.18074l-.00451.001a81.84408,81.84408,0,0,0,6.14194,18.17476"/><path class="cls-8" d="M18.06921,38.2268a84.688,84.688,0,0,0-7.4084,20.76748"/><path class="cls-8" d="M45.92419,83.79812,9.56876,88.9075a86.04059,86.04059,0,0,1-.81962-11.872q0-4.30968.41953-8.51318"/><path class="cls-8" d="M61.53285,40.929l-16.077-17.85526-17.65777.2296a85.58314,85.58314,0,0,0-5.14651,7.04189"/><path class="cls-6" d="M31.27983,106.09614l.63333-.57269a.48316.48316,0,0,1,.7636.15182,3.96072,3.96072,0,0,1-1.24489,4.11006.42678.42678,0,0,1-.66108-.51053,5.51533,5.51533,0,0,0,.34194-2.75317A.5125.5125,0,0,1,31.27983,106.09614Z"/><text class="cls-9" transform="translate(47.08508 16.66965)">A</text><text class="cls-10" transform="translate(117.04112 16.66965)">V</text><line class="cls-11" x1="129.63302" y1="11.43814" x2="140.09754" y2="11.43814"/><line class="cls-11" x1="129.63302" y1="14.16801" x2="140.09754" y2="14.16801"/><line class="cls-11" x1="60.35997" y1="11.43814" x2="70.82448" y2="11.43814"/><line class="cls-11" x1="60.35997" y1="14.16801" x2="70.82448" y2="14.16801"/><text class="cls-12" transform="translate(2.50151 65.61457) rotate(11.01463) scale(0.87 1)">m</text><text class="cls-13" transform="matrix(0.89324, 0.17386, -0.19106, 0.98158, 11.81837, 67.42805)">A</text><text class="cls-13" transform="matrix(0.79043, -0.45092, 0.49552, 0.8686, 21.051, 124.99888)">A</text><text class="cls-14" transform="translate(16.81137 33.26642) rotate(31.74908) scale(0.91 1)">u<tspan class="cls-15" x="3.20119" y="0">.</tspan><tspan x="4.84042" y="0">ge</tspan><tspan class="cls-16" x="11.36354" y="0">t</tspan><tspan class="cls-17" x="14.04426" y="0">r</tspan><tspan class="cls-18" x="15.4431" y="0">.</tspan><tspan x="16.56239" y="0"> </tspan><tspan class="cls-19" x="18.13884" y="0">W</tspan><tspan class="cls-20" x="23.31141" y="0">.</tspan></text></g></g></g></svg>